<svg xmlns="http://www.w3.org/2000/svg" width="420" height="220" viewBox="0 0 420 220">
  <defs>
    <linearGradient id="bg" x1="0" y1="0" x2="1" y2="1">
      <stop offset="0" stop-color="#0b151a"/>
      <stop offset="1" stop-color="#102935"/>
    </linearGradient>
    <radialGradient id="glow" cx="50%" cy="45%" r="58%">
      <stop offset="0" stop-color="#52dfff" stop-opacity="0.40"/>
      <stop offset="0.62" stop-color="#52dfff" stop-opacity="0.12"/>
      <stop offset="1" stop-color="#52dfff" stop-opacity="0"/>
    </radialGradient>
    <linearGradient id="metal" x1="0" y1="0" x2="1" y2="1">
      <stop offset="0" stop-color="#356b7c"/>
      <stop offset="0.56" stop-color="#121d23"/>
      <stop offset="1" stop-color="#080a0d"/>
    </linearGradient>
    <linearGradient id="accent" x1="0" y1="0" x2="1" y2="1">
      <stop offset="0" stop-color="#d7fbff"/>
      <stop offset="1" stop-color="#5adcf3"/>
    </linearGradient>
  </defs>
  <rect width="420" height="220" rx="16" fill="url(#bg)"/>
  <rect width="420" height="220" rx="16" fill="url(#glow)"/>
  <path d="M0 164 L72 132 L136 148 L212 118 L286 146 L352 126 L420 154 V220 H0 Z" fill="#080a0c" opacity="0.46"/>
  <g stroke-linejoin="round">

  <path d="M22 176 C96 150 312 150 398 176 L398 220 L22 220 Z" fill="#050608" opacity="0.34"/>
  <path d="M38 190 H382" stroke="#5adcf3" stroke-width="5" stroke-linecap="round" opacity="0.48"/>
  <path d="M54 34 H152 M268 34 H366 M54 198 H152 M268 198 H366" stroke="#58cfe2" stroke-width="3" stroke-linecap="round" opacity="0.62"/>
  <path d="M64 74 C120 34 174 110 230 70 C278 38 318 70 356 42" stroke="url(#accent)" stroke-width="8" stroke-linecap="round" fill="none"/>
  <path d="M76 118 C124 86 166 152 222 112 C274 74 318 126 356 92" stroke="#d7fbff" stroke-width="6" stroke-linecap="round" fill="none" opacity="0.74"/>
  <path d="M122 42 L100 92 H128 L108 144 L164 78 H134 L150 42 Z" fill="#d7fbff"/>
  <circle cx="258" cy="112" r="18" fill="url(#accent)" opacity="0.64"/>
  <path d="M84 174 H336" stroke="#5adcf3" stroke-width="6" stroke-linecap="round"/>
  </g>
  <rect x="10" y="10" width="400" height="200" rx="12" fill="none" stroke="#58cfe2" stroke-width="3" opacity="0.72"/>
  <rect x="24" y="24" width="372" height="172" rx="9" fill="none" stroke="#101419" stroke-width="2" opacity="0.74"/>
</svg>
