<svg xmlns="http://www.w3.org/2000/svg" width="420" height="220" viewBox="0 0 420 220">
  <defs>
    <linearGradient id="bg" x1="0" y1="0" x2="1" y2="1">
      <stop offset="0" stop-color="#0b151a"/>
      <stop offset="1" stop-color="#102935"/>
    </linearGradient>
    <radialGradient id="glow" cx="50%" cy="45%" r="58%">
      <stop offset="0" stop-color="#52dfff" stop-opacity="0.40"/>
      <stop offset="0.62" stop-color="#52dfff" stop-opacity="0.12"/>
      <stop offset="1" stop-color="#52dfff" stop-opacity="0"/>
    </radialGradient>
    <linearGradient id="metal" x1="0" y1="0" x2="1" y2="1">
      <stop offset="0" stop-color="#356b7c"/>
      <stop offset="0.56" stop-color="#121d23"/>
      <stop offset="1" stop-color="#080a0d"/>
    </linearGradient>
    <linearGradient id="accent" x1="0" y1="0" x2="1" y2="1">
      <stop offset="0" stop-color="#d7fbff"/>
      <stop offset="1" stop-color="#5adcf3"/>
    </linearGradient>
  </defs>
  <rect width="420" height="220" rx="16" fill="url(#bg)"/>
  <rect width="420" height="220" rx="16" fill="url(#glow)"/>
  <path d="M0 164 L72 132 L136 148 L212 118 L286 146 L352 126 L420 154 V220 H0 Z" fill="#080a0c" opacity="0.46"/>
  <g stroke-linejoin="round">

  <path d="M22 176 C96 150 312 150 398 176 L398 220 L22 220 Z" fill="#050608" opacity="0.34"/>
  <path d="M38 190 H382" stroke="#5adcf3" stroke-width="5" stroke-linecap="round" opacity="0.48"/>
  <path d="M54 34 H152 M268 34 H366 M54 198 H152 M268 198 H366" stroke="#58cfe2" stroke-width="3" stroke-linecap="round" opacity="0.62"/>
  <rect x="78" y="118" width="264" height="50" rx="8" fill="url(#metal)" stroke="#d7fbff" stroke-width="6"/>
  <path d="M128 116 L168 62 H252 L292 116" fill="#0d171c" stroke="#5adcf3" stroke-width="5"/>
  <path d="M170 92 H250 M196 62 V116 M224 62 V116" stroke="#d7fbff" stroke-width="4" opacity="0.72"/>
  <path d="M126 82 L92 54 M292 82 L326 54" stroke="url(#accent)" stroke-width="7" stroke-linecap="round"/>
  <circle cx="210" cy="90" r="14" fill="#5adcf3"/>
  </g>
  <rect x="10" y="10" width="400" height="200" rx="12" fill="none" stroke="#58cfe2" stroke-width="3" opacity="0.72"/>
  <rect x="24" y="24" width="372" height="172" rx="9" fill="none" stroke="#101419" stroke-width="2" opacity="0.74"/>
</svg>
