<svg xmlns="http://www.w3.org/2000/svg" width="420" height="220" viewBox="0 0 420 220">
  <defs>
    <linearGradient id="bg" x1="0" y1="0" x2="1" y2="1">
      <stop offset="0" stop-color="#091217"/>
      <stop offset="0.55" stop-color="#172126"/>
      <stop offset="1" stop-color="#08090b"/>
    </linearGradient>
    <radialGradient id="haze" cx="66%" cy="38%" r="58%">
      <stop offset="0" stop-color="#69d7d0" stop-opacity="0.34"/>
      <stop offset="1" stop-color="#69d7d0" stop-opacity="0"/>
    </radialGradient>
    <linearGradient id="metal" x1="0" y1="0" x2="1" y2="1">
      <stop offset="0" stop-color="#a88a5f"/>
      <stop offset="0.42" stop-color="#30383d"/>
      <stop offset="1" stop-color="#0c1114"/>
    </linearGradient>
    <linearGradient id="beam" x1="0" y1="0" x2="1" y2="0">
      <stop offset="0" stop-color="#61e6de" stop-opacity="0.12"/>
      <stop offset="1" stop-color="#a9fff5" stop-opacity="0.72"/>
    </linearGradient>
    <filter id="glow" x="-40%" y="-40%" width="180%" height="180%">
      <feGaussianBlur stdDeviation="3" result="blur"/>
      <feMerge><feMergeNode in="blur"/><feMergeNode in="SourceGraphic"/></feMerge>
    </filter>
  </defs>
  <rect width="420" height="220" rx="16" fill="url(#bg)"/>
  <rect width="420" height="220" rx="16" fill="url(#haze)"/>
  <path d="M0 166 L76 140 L146 154 L220 128 L300 150 L362 126 L420 148 V220 H0 Z" fill="#05080a" opacity="0.64"/>
  <path d="M22 188 H170 M248 188 H398" stroke="#7c6648" stroke-width="9" stroke-linecap="round"/>
  <path d="M22 188 H112 M292 188 H398" stroke="#182126" stroke-width="3" stroke-linecap="round"/>
  <path d="M174 188 L194 180 M218 196 L244 186" stroke="#b55e42" stroke-width="7" stroke-linecap="round"/>
  <path d="M194 180 L214 194 M218 196 L234 176" stroke="#5c2c27" stroke-width="3" stroke-linecap="round"/>
  <g transform="translate(100 38)">
    <path d="M52 55 C52 25 72 8 98 8 C124 8 144 25 144 55 V90 C144 121 126 142 98 142 C70 142 52 121 52 90 Z" fill="url(#metal)" stroke="#b89b69" stroke-width="5"/>
    <rect x="68" y="30" width="60" height="42" rx="15" fill="#0b1115" stroke="#6fded6" stroke-width="4"/>
    <circle cx="84" cy="50" r="7" fill="#b9fff6" filter="url(#glow)"/>
    <circle cx="112" cy="50" r="7" fill="#b9fff6" filter="url(#glow)"/>
    <path d="M80 86 H116" stroke="#272f34" stroke-width="12" stroke-linecap="round"/>
    <path d="M82 82 L91 92 L101 80 L111 94" fill="none" stroke="#d06b4d" stroke-width="4" stroke-linecap="round" stroke-linejoin="round"/>
    <circle cx="98" cy="112" r="16" fill="#091012" stroke="#b89b69" stroke-width="4"/>
    <path d="M98 101 V123 M87 112 H109" stroke="#68dcd4" stroke-width="4" stroke-linecap="round" opacity="0.72"/>
    <path d="M52 78 L26 116 M144 78 L166 116" stroke="#6a5b46" stroke-width="12" stroke-linecap="round"/>
    <path d="M26 116 L14 138 M166 116 L180 138" stroke="#272f34" stroke-width="10" stroke-linecap="round"/>
  </g>
  <path d="M242 82 L390 46 V126 Z" fill="url(#beam)"/>
  <path d="M262 82 H374 M286 64 L344 102 M286 102 L344 64" stroke="#88eee6" stroke-width="3" stroke-linecap="round" opacity="0.68" filter="url(#glow)"/>
  <circle cx="316" cy="82" r="28" fill="none" stroke="#9ffff5" stroke-width="3" opacity="0.54"/>
  <circle cx="316" cy="82" r="11" fill="#a8fff7" opacity="0.42"/>
  <path d="M42 36 H126 M294 34 H378" stroke="#806d50" stroke-width="3" stroke-linecap="round" opacity="0.54"/>
  <rect x="10" y="10" width="400" height="200" rx="12" fill="none" stroke="#806d50" stroke-width="3" opacity="0.72"/>
  <rect x="24" y="24" width="372" height="172" rx="9" fill="none" stroke="#152126" stroke-width="2" opacity="0.82"/>
</svg>
