<svg xmlns="http://www.w3.org/2000/svg" width="512" height="768" viewBox="0 0 512 768"><defs><linearGradient id="bg" y2="1"><stop stop-color="#07151b"/><stop offset="1" stop-color="#19404a"/></linearGradient><radialGradient id="core"><stop stop-color="#f4ffff"/><stop offset=".28" stop-color="#68e8ee"/><stop offset="1" stop-color="#0a6978"/></radialGradient></defs><rect width="512" height="768" fill="url(#bg)"/><circle cx="256" cy="370" r="202" fill="#55dbe9" opacity=".08"/><ellipse cx="256" cy="370" rx="190" ry="94" fill="none" stroke="#55dbe9" stroke-width="16"/><ellipse cx="256" cy="370" rx="154" ry="146" fill="none" stroke="#76eef3" stroke-width="13"/><ellipse cx="256" cy="370" rx="104" ry="208" fill="none" stroke="#3eb6c7" stroke-width="11"/><rect x="194" y="254" width="124" height="224" rx="26" fill="#b77e34" stroke="#f0d08c" stroke-width="12"/><rect x="214" y="284" width="84" height="164" rx="18" fill="#1b3036"/><circle cx="256" cy="366" r="48" fill="url(#core)"/><path d="M88 598h336M126 638h260" stroke="#66848d" stroke-width="20"/><path d="M86 188l56 64M426 188l-56 64M82 548l70-58M430 548l-70-58" stroke="#8cebf2" stroke-width="9"/><rect x="42" y="42" width="428" height="684" rx="26" fill="none" stroke="#46666e" stroke-width="8"/><circle cx="142" cy="252" r="11" fill="#d9ffff"/><circle cx="370" cy="252" r="11" fill="#d9ffff"/></svg>
