<svg xmlns="http://www.w3.org/2000/svg" width="220" height="160" viewBox="0 0 220 160">
  <defs>
    <linearGradient id="bg" x1="0" y1="0" x2="1" y2="1">
      <stop offset="0" stop-color="#160b0d"/>
      <stop offset="0.52" stop-color="#2a1010"/>
      <stop offset="1" stop-color="#060708"/>
    </linearGradient>
    <radialGradient id="coreGlow" cx="50%" cy="52%" r="62%">
      <stop offset="0" stop-color="#ffed9c" stop-opacity="0.62"/>
      <stop offset="0.34" stop-color="#ff3737" stop-opacity="0.28"/>
      <stop offset="1" stop-color="#ff3737" stop-opacity="0"/>
    </radialGradient>
    <linearGradient id="engine" x1="0" y1="0" x2="1" y2="1">
      <stop offset="0" stop-color="#6c3025"/>
      <stop offset="0.42" stop-color="#161a1f"/>
      <stop offset="1" stop-color="#07080a"/>
    </linearGradient>
    <linearGradient id="line" x1="0" y1="0" x2="1" y2="0">
      <stop offset="0" stop-color="#ff3737"/>
      <stop offset="0.55" stop-color="#ffd36c"/>
      <stop offset="1" stop-color="#ff3737"/>
    </linearGradient>
    <filter id="glow" x="-30%" y="-30%" width="160%" height="160%">
      <feGaussianBlur stdDeviation="2.8" result="blur"/>
      <feMerge><feMergeNode in="blur"/><feMergeNode in="SourceGraphic"/></feMerge>
    </filter>
  </defs>
  <rect width="220" height="160" rx="16" fill="url(#bg)"/>
  <rect width="220" height="160" rx="16" fill="url(#coreGlow)"/>
  <path d="M12 130 C52 112 170 112 208 130 L208 160 L12 160 Z" fill="#030507" opacity="0.46"/>
  <rect x="25" y="43" width="15" height="75" rx="3" fill="#08090c" opacity="0.40"/>
  <rect x="180" y="43" width="15" height="75" rx="3" fill="#08090c" opacity="0.40"/>
  <path d="M55 94 C61 52 84 31 110 31 C136 31 159 52 165 94 L150 127 H70 Z" fill="url(#engine)" stroke="#ffb45f" stroke-width="4"/>
  <circle cx="110" cy="78" r="34" fill="#100d10" stroke="#ff4941" stroke-width="5" filter="url(#glow)"/>
  <circle cx="110" cy="78" r="18" fill="#ffb45f" opacity="0.92"/>
  <circle cx="110" cy="78" r="8" fill="#fff0aa" opacity="0.98"/>
  <path d="M49 76 H82 M138 76 H171" stroke="url(#line)" stroke-width="6" stroke-linecap="round" filter="url(#glow)"/>
  <path d="M72 112 C94 122 126 122 148 112" stroke="#ffb45f" stroke-width="5" stroke-linecap="round" opacity="0.70"/>
  <path d="M80 46 L65 30 M140 46 L155 30" stroke="#ff4941" stroke-width="4" stroke-linecap="round" opacity="0.72"/>
  <path d="M92 31 H128" stroke="#ffd36c" stroke-width="4" stroke-linecap="round" opacity="0.74"/>
  <path d="M79 92 L62 101 M141 92 L158 101" stroke="#772018" stroke-width="6" stroke-linecap="round" opacity="0.68"/>
  <path d="M61 135 H93 M127 135 H159" stroke="#5b6060" stroke-width="3" stroke-linecap="round" opacity="0.64"/>
  <path d="M34 31 H80 M140 31 H186" stroke="#ff6a45" stroke-width="3" stroke-linecap="round" opacity="0.46"/>
  <circle cx="34" cy="31" r="12" fill="#0c0809" stroke="#ff6a45" stroke-width="3"/>
  <text x="34" y="36" text-anchor="middle" font-family="Arial, sans-serif" font-size="13" font-weight="700" fill="#ffdf9a">P</text>
  <rect x="7" y="7" width="206" height="146" rx="13" fill="none" stroke="#ff6a45" stroke-width="2.5" opacity="0.86"/>
  <rect x="17" y="17" width="186" height="126" rx="9" fill="none" stroke="#11161a" stroke-width="2" opacity="0.78"/>
</svg>
