<svg xmlns="http://www.w3.org/2000/svg" width="220" height="160" viewBox="0 0 220 160">
  <defs>
    <linearGradient id="bg" x1="0" y1="0" x2="1" y2="1">
      <stop offset="0" stop-color="#0d1518"/>
      <stop offset="1" stop-color="#102a34"/>
    </linearGradient>
    <radialGradient id="glow" cx="50%" cy="45%" r="60%">
      <stop offset="0" stop-color="#57d7f4" stop-opacity="0.40"/>
      <stop offset="0.58" stop-color="#57d7f4" stop-opacity="0.12"/>
      <stop offset="1" stop-color="#57d7f4" stop-opacity="0"/>
    </radialGradient>
    <linearGradient id="metal" x1="0" y1="0" x2="1" y2="1">
      <stop offset="0" stop-color="#285668"/>
      <stop offset="0.54" stop-color="#141c22"/>
      <stop offset="1" stop-color="#080a0d"/>
    </linearGradient>
    <linearGradient id="accent" x1="0" y1="0" x2="1" y2="1">
      <stop offset="0" stop-color="#9ff8ff"/>
      <stop offset="1" stop-color="#5ae5ff"/>
    </linearGradient>
    <filter id="softGlow-bottle-surge" x="-20%" y="-20%" width="140%" height="140%">
      <feGaussianBlur stdDeviation="2.2" result="blur"/>
      <feMerge><feMergeNode in="blur"/><feMergeNode in="SourceGraphic"/></feMerge>
    </filter>
  </defs>
  <rect width="220" height="160" rx="16" fill="url(#bg)"/>
  <rect width="220" height="160" rx="16" fill="url(#glow)"/>
  <path d="M12 126 C48 108 172 108 208 126 L208 160 L12 160 Z" fill="#050608" opacity="0.34"/>
  <rect x="18" y="66" width="18" height="42" rx="3" fill="#090c0f" opacity="0.28"/>
  <rect x="68" y="39" width="18" height="69" rx="3" fill="#090c0f" opacity="0.28"/>
  <rect x="115" y="41" width="18" height="67" rx="3" fill="#090c0f" opacity="0.28"/>
  <rect x="159" y="41" width="18" height="67" rx="3" fill="#090c0f" opacity="0.28"/>
  <path d="M18 34 H202 M24 128 H196" stroke="#61cfe6" stroke-width="2" opacity="0.22"/>
  <path d="M28 18 H78 M142 18 H192 M28 142 H78 M142 142 H192" stroke="#d0924c" stroke-width="3" stroke-linecap="round" opacity="0.78"/>
  <path d="M172 24 L184 42 L176 42 L190 62" stroke="#8df5ff" stroke-width="4" stroke-linecap="round" stroke-linejoin="round" fill="none" opacity="0.78"/>
  <g stroke-linejoin="round">

  <path d="M92 28 H128 V52 L154 88 V122 C154 134 142 142 110 142 C78 142 66 134 66 122 V88 L92 52 Z" fill="url(#metal)" stroke="#69d8ee" stroke-width="5"/>
  <path d="M78 96 C96 84 122 108 142 96 V122 C142 130 132 134 110 134 C88 134 78 130 78 122 Z" fill="url(#accent)" opacity="0.72" filter="url(#softGlow-bottle-surge)"/>
  <rect x="90" y="28" width="40" height="18" rx="5" fill="#d8fbff" opacity="0.78"/>
  <circle cx="100" cy="112" r="6" fill="#9ff8ff" opacity="0.72"/>
  </g>
  <circle cx="28" cy="30" r="14" fill="#090c10" stroke="#61cfe6" stroke-width="3" opacity="0.86"/>
  <text x="28" y="35" text-anchor="middle" font-family="Arial, sans-serif" font-size="13" font-weight="700" fill="#defbff">U</text>
  <rect x="7" y="7" width="206" height="146" rx="13" fill="none" stroke="#61cfe6" stroke-width="2.5" opacity="0.84"/>
  <rect x="17" y="17" width="186" height="126" rx="9" fill="none" stroke="#11161a" stroke-width="2" opacity="0.76"/>
</svg>
