<svg xmlns="http://www.w3.org/2000/svg" width="220" height="160" viewBox="0 0 220 160">
  <defs>
    <linearGradient id="bg" x1="0" y1="0" x2="1" y2="1">
      <stop offset="0" stop-color="#0d1518"/>
      <stop offset="1" stop-color="#102a34"/>
    </linearGradient>
    <radialGradient id="glow" cx="50%" cy="45%" r="60%">
      <stop offset="0" stop-color="#57d7f4" stop-opacity="0.40"/>
      <stop offset="0.58" stop-color="#57d7f4" stop-opacity="0.12"/>
      <stop offset="1" stop-color="#57d7f4" stop-opacity="0"/>
    </radialGradient>
    <linearGradient id="metal" x1="0" y1="0" x2="1" y2="1">
      <stop offset="0" stop-color="#285668"/>
      <stop offset="0.54" stop-color="#141c22"/>
      <stop offset="1" stop-color="#080a0d"/>
    </linearGradient>
    <linearGradient id="accent" x1="0" y1="0" x2="1" y2="1">
      <stop offset="0" stop-color="#fff2c8"/>
      <stop offset="1" stop-color="#ff6a4a"/>
    </linearGradient>
    <filter id="softGlow-blood-kindling" x="-20%" y="-20%" width="140%" height="140%">
      <feGaussianBlur stdDeviation="2.2" result="blur"/>
      <feMerge><feMergeNode in="blur"/><feMergeNode in="SourceGraphic"/></feMerge>
    </filter>
  </defs>
  <rect width="220" height="160" rx="16" fill="url(#bg)"/>
  <rect width="220" height="160" rx="16" fill="url(#glow)"/>
  <path d="M12 126 C48 108 172 108 208 126 L208 160 L12 160 Z" fill="#050608" opacity="0.34"/>
  <rect x="22" y="38" width="18" height="70" rx="3" fill="#090c0f" opacity="0.28"/>
  <rect x="67" y="64" width="18" height="44" rx="3" fill="#090c0f" opacity="0.28"/>
  <rect x="111" y="63" width="18" height="45" rx="3" fill="#090c0f" opacity="0.28"/>
  <rect x="162" y="48" width="18" height="60" rx="3" fill="#090c0f" opacity="0.28"/>
  <path d="M18 34 H202 M24 128 H196" stroke="#61cfe6" stroke-width="2" opacity="0.22"/>
  <path d="M28 18 H78 M142 18 H192 M28 142 H78 M142 142 H192" stroke="#56666b" stroke-width="3" stroke-linecap="round" opacity="0.78"/>
  <path d="M176 24 C162 42 188 46 174 64 C196 48 198 30 176 24 Z" fill="#fff0c8" opacity="0.80"/>
  <g stroke-linejoin="round">

  <path d="M112 136 C78 110 104 80 96 52 C124 72 120 34 144 24 C140 58 170 78 148 116 C140 130 128 136 112 136 Z" fill="url(#accent)" filter="url(#softGlow-blood-kindling)"/>
  <path d="M118 124 C100 106 120 86 118 68 C136 84 134 54 148 42 C144 72 158 90 144 112 C138 120 130 124 118 124 Z" fill="#d8fbff" opacity="0.72"/>
  <path d="M70 136 H162" stroke="#69d8ee" stroke-width="7" stroke-linecap="round" opacity="0.66"/>
  <circle cx="82" cy="72" r="6" fill="#fff2c8" opacity="0.6"/>
  </g>
  <circle cx="28" cy="30" r="14" fill="#090c10" stroke="#61cfe6" stroke-width="3" opacity="0.86"/>
  <text x="28" y="35" text-anchor="middle" font-family="Arial, sans-serif" font-size="13" font-weight="700" fill="#defbff">C</text>
  <rect x="7" y="7" width="206" height="146" rx="13" fill="none" stroke="#61cfe6" stroke-width="2.5" opacity="0.84"/>
  <rect x="17" y="17" width="186" height="126" rx="9" fill="none" stroke="#11161a" stroke-width="2" opacity="0.76"/>
</svg>
