<svg xmlns="http://www.w3.org/2000/svg" width="220" height="160" viewBox="0 0 220 160">
  <defs>
    <linearGradient id="bg" x1="0" y1="0" x2="1" y2="1">
      <stop offset="0" stop-color="#130f1b"/>
      <stop offset="1" stop-color="#2b1738"/>
    </linearGradient>
    <radialGradient id="glow" cx="50%" cy="45%" r="60%">
      <stop offset="0" stop-color="#b36cff" stop-opacity="0.40"/>
      <stop offset="0.58" stop-color="#b36cff" stop-opacity="0.12"/>
      <stop offset="1" stop-color="#b36cff" stop-opacity="0"/>
    </radialGradient>
    <linearGradient id="metal" x1="0" y1="0" x2="1" y2="1">
      <stop offset="0" stop-color="#4b3a66"/>
      <stop offset="0.54" stop-color="#181922"/>
      <stop offset="1" stop-color="#080a0d"/>
    </linearGradient>
    <linearGradient id="accent" x1="0" y1="0" x2="1" y2="1">
      <stop offset="0" stop-color="#ffe0a0"/>
      <stop offset="1" stop-color="#e08a46"/>
    </linearGradient>
    <filter id="softGlow-smelt-plating" x="-20%" y="-20%" width="140%" height="140%">
      <feGaussianBlur stdDeviation="2.2" result="blur"/>
      <feMerge><feMergeNode in="blur"/><feMergeNode in="SourceGraphic"/></feMerge>
    </filter>
  </defs>
  <rect width="220" height="160" rx="16" fill="url(#bg)"/>
  <rect width="220" height="160" rx="16" fill="url(#glow)"/>
  <path d="M12 126 C48 108 172 108 208 126 L208 160 L12 160 Z" fill="#050608" opacity="0.34"/>
  <rect x="25" y="51" width="18" height="57" rx="3" fill="#090c0f" opacity="0.28"/>
  <rect x="69" y="43" width="18" height="65" rx="3" fill="#090c0f" opacity="0.28"/>
  <rect x="113" y="47" width="18" height="61" rx="3" fill="#090c0f" opacity="0.28"/>
  <rect x="163" y="38" width="18" height="70" rx="3" fill="#090c0f" opacity="0.28"/>
  <path d="M18 34 H202 M24 128 H196" stroke="#b982f4" stroke-width="2" opacity="0.22"/>
  <path d="M28 18 H78 M142 18 H192 M28 142 H78 M142 142 H192" stroke="#d8c36a" stroke-width="3" stroke-linecap="round" opacity="0.78"/>
  <circle cx="182" cy="38" r="12" fill="none" stroke="#f0a04a" stroke-width="4" opacity="0.64"/>
  <g stroke-linejoin="round">

  <rect x="50" y="52" width="120" height="70" rx="8" fill="url(#metal)" stroke="#a66df4" stroke-width="5"/>
  <path d="M72 52 V122 M108 52 V122 M144 52 V122 M50 86 H170" stroke="#0b0e11" stroke-width="4" opacity="0.72"/>
  <path d="M60 132 H160" stroke="url(#accent)" stroke-width="8" stroke-linecap="round" filter="url(#softGlow-smelt-plating)"/>
  <circle cx="110" cy="86" r="15" fill="#e08a46" opacity="0.56"/>
  </g>
  <circle cx="28" cy="30" r="14" fill="#090c10" stroke="#b982f4" stroke-width="3" opacity="0.86"/>
  <text x="28" y="35" text-anchor="middle" font-family="Arial, sans-serif" font-size="13" font-weight="700" fill="#f2dcff">R</text>
  <rect x="7" y="7" width="206" height="146" rx="13" fill="none" stroke="#b982f4" stroke-width="2.5" opacity="0.84"/>
  <rect x="17" y="17" width="186" height="126" rx="9" fill="none" stroke="#11161a" stroke-width="2" opacity="0.76"/>
</svg>
