<svg xmlns="http://www.w3.org/2000/svg" width="220" height="160" viewBox="0 0 220 160">
  <defs>
    <linearGradient id="bg" x1="0" y1="0" x2="1" y2="1">
      <stop offset="0" stop-color="#130f1b"/>
      <stop offset="1" stop-color="#2b1738"/>
    </linearGradient>
    <radialGradient id="glow" cx="50%" cy="45%" r="60%">
      <stop offset="0" stop-color="#b36cff" stop-opacity="0.40"/>
      <stop offset="0.58" stop-color="#b36cff" stop-opacity="0.12"/>
      <stop offset="1" stop-color="#b36cff" stop-opacity="0"/>
    </radialGradient>
    <linearGradient id="metal" x1="0" y1="0" x2="1" y2="1">
      <stop offset="0" stop-color="#4b3a66"/>
      <stop offset="0.54" stop-color="#181922"/>
      <stop offset="1" stop-color="#080a0d"/>
    </linearGradient>
    <linearGradient id="accent" x1="0" y1="0" x2="1" y2="1">
      <stop offset="0" stop-color="#9ff8ff"/>
      <stop offset="1" stop-color="#5ae5ff"/>
    </linearGradient>
    <filter id="softGlow-livewire-matrix" x="-20%" y="-20%" width="140%" height="140%">
      <feGaussianBlur stdDeviation="2.2" result="blur"/>
      <feMerge><feMergeNode in="blur"/><feMergeNode in="SourceGraphic"/></feMerge>
    </filter>
  </defs>
  <rect width="220" height="160" rx="16" fill="url(#bg)"/>
  <rect width="220" height="160" rx="16" fill="url(#glow)"/>
  <path d="M12 126 C48 108 172 108 208 126 L208 160 L12 160 Z" fill="#050608" opacity="0.34"/>
  <rect x="21" y="39" width="18" height="69" rx="3" fill="#090c0f" opacity="0.28"/>
  <rect x="71" y="47" width="18" height="61" rx="3" fill="#090c0f" opacity="0.28"/>
  <rect x="111" y="51" width="18" height="57" rx="3" fill="#090c0f" opacity="0.28"/>
  <rect x="163" y="64" width="18" height="44" rx="3" fill="#090c0f" opacity="0.28"/>
  <path d="M18 34 H202 M24 128 H196" stroke="#b982f4" stroke-width="2" opacity="0.22"/>
  <path d="M28 18 H78 M142 18 H192 M28 142 H78 M142 142 H192" stroke="#d8c36a" stroke-width="3" stroke-linecap="round" opacity="0.78"/>
  <path d="M172 24 L184 42 L176 42 L190 62" stroke="#8df5ff" stroke-width="4" stroke-linecap="round" stroke-linejoin="round" fill="none" opacity="0.78"/>
  <g stroke-linejoin="round">

  <rect x="54" y="42" width="112" height="86" rx="10" fill="url(#metal)" stroke="#a66df4" stroke-width="5"/>
  <path d="M76 58 H144 M76 84 H144 M76 110 H144 M86 48 V122 M116 48 V122 M146 48 V122" stroke="#f0d8ff" stroke-width="3" opacity="0.56"/>
  <circle cx="86" cy="84" r="8" fill="#5ae5ff"/>
  <circle cx="116" cy="110" r="8" fill="#9ff8ff"/>
  <circle cx="146" cy="58" r="8" fill="#5ae5ff"/>
  <path d="M68 136 H154" stroke="url(#accent)" stroke-width="7" stroke-linecap="round" filter="url(#softGlow-livewire-matrix)"/>
  </g>
  <circle cx="28" cy="30" r="14" fill="#090c10" stroke="#b982f4" stroke-width="3" opacity="0.86"/>
  <text x="28" y="35" text-anchor="middle" font-family="Arial, sans-serif" font-size="13" font-weight="700" fill="#f2dcff">R</text>
  <rect x="7" y="7" width="206" height="146" rx="13" fill="none" stroke="#b982f4" stroke-width="2.5" opacity="0.84"/>
  <rect x="17" y="17" width="186" height="126" rx="9" fill="none" stroke="#11161a" stroke-width="2" opacity="0.76"/>
</svg>
