<svg xmlns="http://www.w3.org/2000/svg" width="220" height="160" viewBox="0 0 220 160">
  <defs>
    <linearGradient id="bg" x1="0" y1="0" x2="1" y2="1">
      <stop offset="0" stop-color="#101719"/>
      <stop offset="0.52" stop-color="#132927"/>
      <stop offset="1" stop-color="#08090c"/>
    </linearGradient>
    <radialGradient id="ember" cx="50%" cy="54%" r="62%">
      <stop offset="0" stop-color="#ffc15f" stop-opacity="0.52"/>
      <stop offset="0.48" stop-color="#2ed7c5" stop-opacity="0.18"/>
      <stop offset="1" stop-color="#2ed7c5" stop-opacity="0"/>
    </radialGradient>
    <linearGradient id="shield" x1="0" y1="0" x2="1" y2="1">
      <stop offset="0" stop-color="#78fff2"/>
      <stop offset="0.42" stop-color="#215e61"/>
      <stop offset="1" stop-color="#090d11"/>
    </linearGradient>
    <linearGradient id="coal" x1="0" y1="0" x2="0" y2="1">
      <stop offset="0" stop-color="#ffb15e"/>
      <stop offset="1" stop-color="#7d2513"/>
    </linearGradient>
    <filter id="soft" x="-20%" y="-20%" width="140%" height="140%">
      <feGaussianBlur stdDeviation="2.1" result="blur"/>
      <feMerge><feMergeNode in="blur"/><feMergeNode in="SourceGraphic"/></feMerge>
    </filter>
  </defs>
  <rect width="220" height="160" rx="16" fill="url(#bg)"/>
  <rect width="220" height="160" rx="16" fill="url(#ember)"/>
  <path d="M13 132 C50 113 168 113 207 132 L207 160 L13 160 Z" fill="#030507" opacity="0.42"/>
  <rect x="22" y="42" width="16" height="75" rx="3" fill="#081014" opacity="0.34"/>
  <rect x="181" y="42" width="16" height="75" rx="3" fill="#081014" opacity="0.34"/>
  <path d="M42 116 L110 26 L178 116 C154 132 130 139 110 141 C89 139 65 132 42 116 Z" fill="url(#shield)" stroke="#8ffff2" stroke-width="4" filter="url(#soft)"/>
  <path d="M63 109 L110 46 L157 109 C139 119 123 124 110 125 C96 124 79 119 63 109 Z" fill="#071014" opacity="0.58" stroke="#304a4d" stroke-width="2"/>
  <path d="M73 102 H147" stroke="#ffb15e" stroke-width="5" stroke-linecap="round" opacity="0.76"/>
  <path d="M88 85 H132" stroke="#ffde8a" stroke-width="4" stroke-linecap="round" opacity="0.86"/>
  <circle cx="110" cy="102" r="14" fill="url(#coal)" stroke="#ffd28a" stroke-width="3"/>
  <path d="M104 99 C109 88 118 92 116 103 C121 101 124 107 120 113 C115 121 101 117 100 109 C100 105 102 102 104 99 Z" fill="#fff0b5" opacity="0.82"/>
  <path d="M48 39 H87 M133 39 H172 M32 132 H72 M148 132 H188" stroke="#506a6d" stroke-width="3" stroke-linecap="round" opacity="0.62"/>
  <path d="M36 58 C55 62 64 73 65 92" stroke="#2eead2" stroke-width="3" stroke-linecap="round" opacity="0.42"/>
  <path d="M184 58 C165 62 156 73 155 92" stroke="#2eead2" stroke-width="3" stroke-linecap="round" opacity="0.42"/>
  <circle cx="32" cy="31" r="12" fill="#071012" stroke="#7dfff1" stroke-width="3"/>
  <text x="32" y="36" text-anchor="middle" font-family="Arial, sans-serif" font-size="13" font-weight="700" fill="#dffffb">+1</text>
  <rect x="7" y="7" width="206" height="146" rx="13" fill="none" stroke="#6eeee2" stroke-width="2.5" opacity="0.82"/>
  <rect x="17" y="17" width="186" height="126" rx="9" fill="none" stroke="#11161a" stroke-width="2" opacity="0.78"/>
</svg>
