<svg xmlns="http://www.w3.org/2000/svg" width="512" height="768" viewBox="0 0 512 768"><defs><linearGradient id="bg" x2="1" y2="1"><stop stop-color="#08131a"/><stop offset="1" stop-color="#193b46"/></linearGradient><radialGradient id="core"><stop stop-color="#efffff"/><stop offset=".3" stop-color="#66edf2"/><stop offset="1" stop-color="#1b7180"/></radialGradient></defs><rect width="512" height="768" fill="url(#bg)"/><circle cx="256" cy="364" r="210" fill="#64e2e9" opacity=".08"/><path d="M256 78l176 96v180c0 148-74 254-176 330C154 608 80 502 80 354V174z" fill="#173c46" stroke="#6ae5ec" stroke-width="18"/><path d="M256 148l112 64v132c0 98-46 174-112 230-66-56-112-132-112-230V212z" fill="#15282e" stroke="#c79345" stroke-width="18"/><path d="M256 222l66 42v88c0 62-24 110-66 152-42-42-66-90-66-152v-88z" fill="#20515b" stroke="#74e5ea" stroke-width="12"/><circle cx="256" cy="350" r="54" fill="url(#core)"/><path d="M94 260l54 30M418 260l-54 30M116 500l58-34M396 500l-58-34" stroke="#d5fbfc" stroke-width="9"/><circle cx="94" cy="260" r="10" fill="#7debf0"/><circle cx="418" cy="260" r="10" fill="#7debf0"/><circle cx="116" cy="500" r="10" fill="#7debf0"/><circle cx="396" cy="500" r="10" fill="#7debf0"/><rect x="42" y="42" width="428" height="684" rx="26" fill="none" stroke="#48636c" stroke-width="8"/></svg>
