<svg xmlns="http://www.w3.org/2000/svg" width="220" height="160" viewBox="0 0 220 160">
  <defs>
    <linearGradient id="bg" x1="0" y1="0" x2="1" y2="1">
      <stop offset="0" stop-color="#0d1518"/>
      <stop offset="1" stop-color="#102a34"/>
    </linearGradient>
    <radialGradient id="glow" cx="50%" cy="45%" r="60%">
      <stop offset="0" stop-color="#57d7f4" stop-opacity="0.40"/>
      <stop offset="0.58" stop-color="#57d7f4" stop-opacity="0.12"/>
      <stop offset="1" stop-color="#57d7f4" stop-opacity="0"/>
    </radialGradient>
    <linearGradient id="metal" x1="0" y1="0" x2="1" y2="1">
      <stop offset="0" stop-color="#285668"/>
      <stop offset="0.54" stop-color="#141c22"/>
      <stop offset="1" stop-color="#080a0d"/>
    </linearGradient>
    <linearGradient id="accent" x1="0" y1="0" x2="1" y2="1">
      <stop offset="0" stop-color="#ffe0a0"/>
      <stop offset="1" stop-color="#e08a46"/>
    </linearGradient>
    <filter id="softGlow-defensive-loop" x="-20%" y="-20%" width="140%" height="140%">
      <feGaussianBlur stdDeviation="2.2" result="blur"/>
      <feMerge><feMergeNode in="blur"/><feMergeNode in="SourceGraphic"/></feMerge>
    </filter>
  </defs>
  <rect width="220" height="160" rx="16" fill="url(#bg)"/>
  <rect width="220" height="160" rx="16" fill="url(#glow)"/>
  <path d="M12 126 C48 108 172 108 208 126 L208 160 L12 160 Z" fill="#050608" opacity="0.34"/>
  <rect x="25" y="43" width="18" height="65" rx="3" fill="#090c0f" opacity="0.28"/>
  <rect x="66" y="46" width="18" height="62" rx="3" fill="#090c0f" opacity="0.28"/>
  <rect x="112" y="44" width="18" height="64" rx="3" fill="#090c0f" opacity="0.28"/>
  <rect x="161" y="52" width="18" height="56" rx="3" fill="#090c0f" opacity="0.28"/>
  <path d="M18 34 H202 M24 128 H196" stroke="#61cfe6" stroke-width="2" opacity="0.22"/>
  <path d="M28 18 H78 M142 18 H192 M28 142 H78 M142 142 H192" stroke="#d0924c" stroke-width="3" stroke-linecap="round" opacity="0.78"/>
  <circle cx="182" cy="38" r="12" fill="none" stroke="#f0a04a" stroke-width="4" opacity="0.64"/>
  <g stroke-linejoin="round">

  <path d="M62 86 C62 50 110 48 110 84 C110 120 158 120 158 84 C158 48 110 50 110 86 C110 122 62 122 62 86 Z" fill="none" stroke="url(#accent)" stroke-width="10" stroke-linecap="round" filter="url(#softGlow-defensive-loop)"/>
  <path d="M166 78 L190 86 L166 96" fill="#ffe0a0"/>
  <circle cx="62" cy="86" r="10" fill="#e08a46" opacity="0.72"/>
  <circle cx="158" cy="86" r="10" fill="#e08a46" opacity="0.72"/>
  </g>
  <circle cx="28" cy="30" r="14" fill="#090c10" stroke="#61cfe6" stroke-width="3" opacity="0.86"/>
  <text x="28" y="35" text-anchor="middle" font-family="Arial, sans-serif" font-size="13" font-weight="700" fill="#defbff">U</text>
  <rect x="7" y="7" width="206" height="146" rx="13" fill="none" stroke="#61cfe6" stroke-width="2.5" opacity="0.84"/>
  <rect x="17" y="17" width="186" height="126" rx="9" fill="none" stroke="#11161a" stroke-width="2" opacity="0.76"/>
</svg>
