<svg xmlns="http://www.w3.org/2000/svg" width="220" height="160" viewBox="0 0 220 160">
  <defs>
    <linearGradient id="bg" x1="0" y1="0" x2="1" y2="1">
      <stop offset="0" stop-color="#111214"/>
      <stop offset="1" stop-color="#2b1717"/>
    </linearGradient>
    <radialGradient id="glow" cx="50%" cy="45%" r="60%">
      <stop offset="0" stop-color="#d9503f" stop-opacity="0.40"/>
      <stop offset="0.58" stop-color="#d9503f" stop-opacity="0.12"/>
      <stop offset="1" stop-color="#d9503f" stop-opacity="0"/>
    </radialGradient>
    <linearGradient id="metal" x1="0" y1="0" x2="1" y2="1">
      <stop offset="0" stop-color="#493434"/>
      <stop offset="0.54" stop-color="#161719"/>
      <stop offset="1" stop-color="#080a0d"/>
    </linearGradient>
    <linearGradient id="accent" x1="0" y1="0" x2="1" y2="1">
      <stop offset="0" stop-color="#ffe0a0"/>
      <stop offset="1" stop-color="#e08a46"/>
    </linearGradient>
    <filter id="softGlow-searing-wound" x="-20%" y="-20%" width="140%" height="140%">
      <feGaussianBlur stdDeviation="2.2" result="blur"/>
      <feMerge><feMergeNode in="blur"/><feMergeNode in="SourceGraphic"/></feMerge>
    </filter>
  </defs>
  <rect width="220" height="160" rx="16" fill="url(#bg)"/>
  <rect width="220" height="160" rx="16" fill="url(#glow)"/>
  <path d="M12 126 C48 108 172 108 208 126 L208 160 L12 160 Z" fill="#050608" opacity="0.34"/>
  <rect x="24" y="52" width="18" height="56" rx="3" fill="#090c0f" opacity="0.28"/>
  <rect x="69" y="35" width="18" height="73" rx="3" fill="#090c0f" opacity="0.28"/>
  <rect x="117" y="44" width="18" height="64" rx="3" fill="#090c0f" opacity="0.28"/>
  <rect x="161" y="40" width="18" height="68" rx="3" fill="#090c0f" opacity="0.28"/>
  <path d="M18 34 H202 M24 128 H196" stroke="#b2554c" stroke-width="2" opacity="0.22"/>
  <path d="M28 18 H78 M142 18 H192 M28 142 H78 M142 142 H192" stroke="#a0534a" stroke-width="3" stroke-linecap="round" opacity="0.78"/>
  <circle cx="182" cy="38" r="12" fill="none" stroke="#f0a04a" stroke-width="4" opacity="0.64"/>
  <g stroke-linejoin="round">

  <path d="M76 48 C102 34 140 34 164 50 L150 126 C130 136 94 134 72 122 Z" fill="url(#metal)" stroke="#d75a4a" stroke-width="5"/>
  <path d="M92 72 C116 88 128 96 150 86" stroke="url(#accent)" stroke-width="9" stroke-linecap="round" filter="url(#softGlow-searing-wound)"/>
  <path d="M98 112 C118 98 132 126 150 110" stroke="#ffd0c4" stroke-width="5" stroke-linecap="round" opacity="0.78"/>
  <circle cx="112" cy="92" r="10" fill="#e08a46" opacity="0.58"/>
  <path d="M68 134 H160" stroke="#d75a4a" stroke-width="6" stroke-linecap="round" opacity="0.56"/>
  </g>
  <circle cx="28" cy="30" r="14" fill="#090c10" stroke="#b2554c" stroke-width="3" opacity="0.86"/>
  <text x="28" y="35" text-anchor="middle" font-family="Arial, sans-serif" font-size="13" font-weight="700" fill="#ffd9ce">!</text>
  <rect x="7" y="7" width="206" height="146" rx="13" fill="none" stroke="#b2554c" stroke-width="2.5" opacity="0.84"/>
  <rect x="17" y="17" width="186" height="126" rx="9" fill="none" stroke="#11161a" stroke-width="2" opacity="0.76"/>
</svg>
