<svg xmlns="http://www.w3.org/2000/svg" width="512" height="768" viewBox="0 0 512 768"><defs><linearGradient id="bg" y2="1"><stop stop-color="#071217"/><stop offset="1" stop-color="#203b42"/></linearGradient><linearGradient id="field" y2="1"><stop stop-color="#69e9ef" stop-opacity=".65"/><stop offset="1" stop-color="#183d47" stop-opacity=".9"/></linearGradient></defs><rect width="512" height="768" fill="url(#bg)"/><circle cx="256" cy="344" r="176" fill="#4edbe4" opacity=".1"/><path d="M256 90v350M158 252l98 188 98-188" fill="none" stroke="#6ce7ed" stroke-width="24"/><path d="M76 548q180-150 360 0v118H76z" fill="url(#field)" stroke="#bdeff2" stroke-width="14"/><path d="M54 592h404M92 634h328M138 680h236" stroke="#76969d" stroke-width="18"/><path d="M118 198l52 42M394 198l-52 42M104 474l62-32M408 474l-62-32" stroke="#d7fbfc" stroke-width="9"/><circle cx="256" cy="440" r="30" fill="#e7ffff"/><circle cx="256" cy="440" r="58" fill="none" stroke="#4ec9d3" stroke-width="10"/><circle cx="118" cy="198" r="10" fill="#84edf2"/><circle cx="394" cy="198" r="10" fill="#84edf2"/><rect x="42" y="42" width="428" height="684" rx="26" fill="none" stroke="#466169" stroke-width="8"/></svg>
