<svg xmlns="http://www.w3.org/2000/svg" width="512" height="768" viewBox="0 0 512 768"><defs><linearGradient id="bg" x2="1" y2="1"><stop stop-color="#071116"/><stop offset="1" stop-color="#193744"/></linearGradient><radialGradient id="glow"><stop stop-color="#eaffff"/><stop offset=".35" stop-color="#56e1ef"/><stop offset="1" stop-color="#147084" stop-opacity="0"/></radialGradient></defs><rect width="512" height="768" fill="url(#bg)"/><circle cx="254" cy="372" r="186" fill="url(#glow)" opacity=".32"/><circle cx="254" cy="372" r="112" fill="none" stroke="#b98a45" stroke-width="18"/><circle cx="254" cy="372" r="76" fill="#17252b" stroke="#e2c17b" stroke-width="9"/><path d="M68 590L206 126l58 246 184-196-118 420-82-206z" fill="#3fcddd" stroke="#d9fbff" stroke-width="12"/><path d="M94 620h324" stroke="#718e98" stroke-width="24"/><path d="M126 654h260" stroke="#364f58" stroke-width="18"/><path d="M112 250l74 38M326 214l72-54M346 476l88 42M122 488l72-54" stroke="#8cebf2" stroke-width="10"/><rect x="42" y="42" width="428" height="684" rx="26" fill="none" stroke="#42616b" stroke-width="8"/><circle cx="112" cy="250" r="14" fill="#d7faff"/><circle cx="398" cy="160" r="12" fill="#d7faff"/><circle cx="434" cy="518" r="10" fill="#d7faff"/></svg>
