<svg xmlns="http://www.w3.org/2000/svg" width="220" height="160" viewBox="0 0 220 160">
  <defs>
    <linearGradient id="bg" x1="0" y1="0" x2="1" y2="1">
      <stop offset="0" stop-color="#0d1518"/>
      <stop offset="1" stop-color="#102a34"/>
    </linearGradient>
    <radialGradient id="glow" cx="50%" cy="45%" r="60%">
      <stop offset="0" stop-color="#57d7f4" stop-opacity="0.40"/>
      <stop offset="0.58" stop-color="#57d7f4" stop-opacity="0.12"/>
      <stop offset="1" stop-color="#57d7f4" stop-opacity="0"/>
    </radialGradient>
    <linearGradient id="metal" x1="0" y1="0" x2="1" y2="1">
      <stop offset="0" stop-color="#285668"/>
      <stop offset="0.54" stop-color="#141c22"/>
      <stop offset="1" stop-color="#080a0d"/>
    </linearGradient>
    <linearGradient id="accent" x1="0" y1="0" x2="1" y2="1">
      <stop offset="0" stop-color="#ffe0a0"/>
      <stop offset="1" stop-color="#e08a46"/>
    </linearGradient>
    <filter id="softGlow-battery-pack" x="-20%" y="-20%" width="140%" height="140%">
      <feGaussianBlur stdDeviation="2.2" result="blur"/>
      <feMerge><feMergeNode in="blur"/><feMergeNode in="SourceGraphic"/></feMerge>
    </filter>
  </defs>
  <rect width="220" height="160" rx="16" fill="url(#bg)"/>
  <rect width="220" height="160" rx="16" fill="url(#glow)"/>
  <path d="M12 126 C48 108 172 108 208 126 L208 160 L12 160 Z" fill="#050608" opacity="0.34"/>
  <rect x="19" y="49" width="18" height="59" rx="3" fill="#090c0f" opacity="0.28"/>
  <rect x="66" y="52" width="18" height="56" rx="3" fill="#090c0f" opacity="0.28"/>
  <rect x="117" y="41" width="18" height="67" rx="3" fill="#090c0f" opacity="0.28"/>
  <rect x="158" y="43" width="18" height="65" rx="3" fill="#090c0f" opacity="0.28"/>
  <path d="M18 34 H202 M24 128 H196" stroke="#61cfe6" stroke-width="2" opacity="0.22"/>
  <path d="M28 18 H78 M142 18 H192 M28 142 H78 M142 142 H192" stroke="#d0924c" stroke-width="3" stroke-linecap="round" opacity="0.78"/>
  <circle cx="182" cy="38" r="12" fill="none" stroke="#f0a04a" stroke-width="4" opacity="0.64"/>
  <g stroke-linejoin="round">

  <rect x="62" y="54" width="112" height="58" rx="10" fill="url(#metal)" stroke="#69d8ee" stroke-width="5"/>
  <rect x="174" y="72" width="14" height="22" rx="4" fill="#69d8ee"/>
  <path d="M84 82 H152" stroke="url(#accent)" stroke-width="12" stroke-linecap="round" filter="url(#softGlow-battery-pack)"/>
  <path d="M110 66 L100 86 H116 L106 108 L136 76 H120 L128 66 Z" fill="#d8fbff"/>
  <path d="M70 130 H166" stroke="#69d8ee" stroke-width="6" stroke-linecap="round" opacity="0.54"/>
  </g>
  <circle cx="28" cy="30" r="14" fill="#090c10" stroke="#61cfe6" stroke-width="3" opacity="0.86"/>
  <text x="28" y="35" text-anchor="middle" font-family="Arial, sans-serif" font-size="13" font-weight="700" fill="#defbff">U</text>
  <rect x="7" y="7" width="206" height="146" rx="13" fill="none" stroke="#61cfe6" stroke-width="2.5" opacity="0.84"/>
  <rect x="17" y="17" width="186" height="126" rx="9" fill="none" stroke="#11161a" stroke-width="2" opacity="0.76"/>
</svg>
