<svg xmlns="http://www.w3.org/2000/svg" width="220" height="160" viewBox="0 0 220 160">
  <defs>
    <linearGradient id="bg" x1="0" y1="0" x2="1" y2="1">
      <stop offset="0" stop-color="#151015"/>
      <stop offset="0.55" stop-color="#29150f"/>
      <stop offset="1" stop-color="#06080b"/>
    </linearGradient>
    <radialGradient id="heat" cx="45%" cy="46%" r="64%">
      <stop offset="0" stop-color="#ffcf6f" stop-opacity="0.58"/>
      <stop offset="0.46" stop-color="#e45d2b" stop-opacity="0.22"/>
      <stop offset="1" stop-color="#e45d2b" stop-opacity="0"/>
    </radialGradient>
    <linearGradient id="blade" x1="0" y1="0" x2="1" y2="1">
      <stop offset="0" stop-color="#fff2c2"/>
      <stop offset="0.42" stop-color="#f28a3f"/>
      <stop offset="1" stop-color="#29100c"/>
    </linearGradient>
    <linearGradient id="steam" x1="0" y1="0" x2="1" y2="0">
      <stop offset="0" stop-color="#9ffff2" stop-opacity="0"/>
      <stop offset="0.48" stop-color="#9ffff2" stop-opacity="0.68"/>
      <stop offset="1" stop-color="#ffffff" stop-opacity="0"/>
    </linearGradient>
    <filter id="glow" x="-25%" y="-25%" width="150%" height="150%">
      <feGaussianBlur stdDeviation="2.6" result="blur"/>
      <feMerge><feMergeNode in="blur"/><feMergeNode in="SourceGraphic"/></feMerge>
    </filter>
  </defs>
  <rect width="220" height="160" rx="16" fill="url(#bg)"/>
  <rect width="220" height="160" rx="16" fill="url(#heat)"/>
  <path d="M12 128 C56 112 158 112 208 130 L208 160 L12 160 Z" fill="#030507" opacity="0.40"/>
  <rect x="20" y="34" width="15" height="82" rx="3" fill="#080b0f" opacity="0.38"/>
  <rect x="48" y="28" width="10" height="96" rx="3" fill="#111820" opacity="0.30"/>
  <rect x="174" y="35" width="13" height="82" rx="3" fill="#0a0d10" opacity="0.36"/>
  <path d="M26 126 H192" stroke="#ff9a43" stroke-width="3" opacity="0.22"/>
  <path d="M34 31 C72 54 122 64 184 48" stroke="url(#steam)" stroke-width="7" stroke-linecap="round" opacity="0.75"/>
  <path d="M28 95 C84 74 134 50 191 22 L178 63 C131 76 88 92 42 126 Z" fill="url(#blade)" stroke="#ffe4a5" stroke-width="3" filter="url(#glow)"/>
  <path d="M55 105 C92 90 139 73 169 56" stroke="#fff0bb" stroke-width="4" stroke-linecap="round" opacity="0.72"/>
  <path d="M35 119 L55 101 L68 113 L49 132 Z" fill="#2b1611" stroke="#e97134" stroke-width="3"/>
  <circle cx="68" cy="110" r="8" fill="#ffc56f" opacity="0.72"/>
  <path d="M82 43 C94 39 104 42 112 50" stroke="#71fff0" stroke-width="3" stroke-linecap="round" opacity="0.76"/>
  <path d="M118 36 C132 31 149 35 160 45" stroke="#71fff0" stroke-width="3" stroke-linecap="round" opacity="0.58"/>
  <path d="M76 128 L90 118 M104 128 L119 116 M133 126 L150 114" stroke="#f07138" stroke-width="3" stroke-linecap="round" opacity="0.50"/>
  <circle cx="188" cy="34" r="11" fill="#080a0d" stroke="#ffbd66" stroke-width="3"/>
  <text x="188" y="39" text-anchor="middle" font-family="Arial, sans-serif" font-size="13" font-weight="700" fill="#ffe9b4">3</text>
  <rect x="7" y="7" width="206" height="146" rx="13" fill="none" stroke="#e96f3d" stroke-width="2.5" opacity="0.86"/>
  <rect x="17" y="17" width="186" height="126" rx="9" fill="none" stroke="#10151a" stroke-width="2" opacity="0.80"/>
</svg>
