<svg xmlns="http://www.w3.org/2000/svg" width="220" height="160" viewBox="0 0 220 160">
  <defs>
    <linearGradient id="bg" x1="0" y1="0" x2="1" y2="1">
      <stop offset="0" stop-color="#160f12"/>
      <stop offset="1" stop-color="#32150f"/>
    </linearGradient>
    <radialGradient id="glow" cx="50%" cy="45%" r="60%">
      <stop offset="0" stop-color="#f26d2f" stop-opacity="0.40"/>
      <stop offset="0.58" stop-color="#f26d2f" stop-opacity="0.12"/>
      <stop offset="1" stop-color="#f26d2f" stop-opacity="0"/>
    </radialGradient>
    <linearGradient id="metal" x1="0" y1="0" x2="1" y2="1">
      <stop offset="0" stop-color="#5a3830"/>
      <stop offset="0.54" stop-color="#151a1f"/>
      <stop offset="1" stop-color="#080a0d"/>
    </linearGradient>
    <linearGradient id="accent" x1="0" y1="0" x2="1" y2="1">
      <stop offset="0" stop-color="#ffe0a0"/>
      <stop offset="1" stop-color="#e08a46"/>
    </linearGradient>
    <filter id="softGlow-violent-discharge" x="-20%" y="-20%" width="140%" height="140%">
      <feGaussianBlur stdDeviation="2.2" result="blur"/>
      <feMerge><feMergeNode in="blur"/><feMergeNode in="SourceGraphic"/></feMerge>
    </filter>
  </defs>
  <rect width="220" height="160" rx="16" fill="url(#bg)"/>
  <rect width="220" height="160" rx="16" fill="url(#glow)"/>
  <path d="M12 126 C48 108 172 108 208 126 L208 160 L12 160 Z" fill="#050608" opacity="0.34"/>
  <rect x="24" y="36" width="18" height="72" rx="3" fill="#090c0f" opacity="0.28"/>
  <rect x="67" y="42" width="18" height="66" rx="3" fill="#090c0f" opacity="0.28"/>
  <rect x="114" y="55" width="18" height="53" rx="3" fill="#090c0f" opacity="0.28"/>
  <rect x="163" y="43" width="18" height="65" rx="3" fill="#090c0f" opacity="0.28"/>
  <path d="M18 34 H202 M24 128 H196" stroke="#df7445" stroke-width="2" opacity="0.22"/>
  <path d="M28 18 H78 M142 18 H192 M28 142 H78 M142 142 H192" stroke="#d0924c" stroke-width="3" stroke-linecap="round" opacity="0.78"/>
  <circle cx="182" cy="38" r="12" fill="none" stroke="#f0a04a" stroke-width="4" opacity="0.64"/>
  <g stroke-linejoin="round">

  <path d="M116 24 L72 88 H108 L88 136 L154 70 H118 L138 24 Z" fill="url(#accent)" filter="url(#softGlow-violent-discharge)"/>
  <path d="M56 66 L36 52 M166 92 L196 82 M68 124 L42 138 M150 38 L184 24" stroke="#ffe0a0" stroke-width="5" stroke-linecap="round" opacity="0.72"/>
  <circle cx="150" cy="108" r="12" fill="#e08a46" opacity="0.56"/>
  <circle cx="72" cy="48" r="7" fill="#ffe0a0" opacity="0.72"/>
  </g>
  <circle cx="28" cy="30" r="14" fill="#090c10" stroke="#df7445" stroke-width="3" opacity="0.86"/>
  <text x="28" y="35" text-anchor="middle" font-family="Arial, sans-serif" font-size="13" font-weight="700" fill="#ffe4a8">U</text>
  <rect x="7" y="7" width="206" height="146" rx="13" fill="none" stroke="#df7445" stroke-width="2.5" opacity="0.84"/>
  <rect x="17" y="17" width="186" height="126" rx="9" fill="none" stroke="#11161a" stroke-width="2" opacity="0.76"/>
</svg>
