<svg xmlns="http://www.w3.org/2000/svg" width="160" height="160" viewBox="0 0 160 160">
  <defs>
    <linearGradient id="bg" x1="0" y1="0" x2="1" y2="1">
      <stop offset="0" stop-color="#140f12"/>
      <stop offset="1" stop-color="#2f171b"/>
    </linearGradient>
    <radialGradient id="glow" cx="50%" cy="45%" r="58%">
      <stop offset="0" stop-color="#ff6a4a" stop-opacity="0.40"/>
      <stop offset="0.62" stop-color="#ff6a4a" stop-opacity="0.12"/>
      <stop offset="1" stop-color="#ff6a4a" stop-opacity="0"/>
    </radialGradient>
    <linearGradient id="metal" x1="0" y1="0" x2="1" y2="1">
      <stop offset="0" stop-color="#644246"/>
      <stop offset="0.56" stop-color="#17181c"/>
      <stop offset="1" stop-color="#080a0d"/>
    </linearGradient>
    <linearGradient id="accent" x1="0" y1="0" x2="1" y2="1">
      <stop offset="0" stop-color="#fff0c8"/>
      <stop offset="1" stop-color="#ee6048"/>
    </linearGradient>
  </defs>
  <rect width="160" height="160" rx="22" fill="url(#bg)"/>
  <rect width="160" height="160" rx="22" fill="url(#glow)"/>
  <path d="M18 130 C48 114 112 114 142 130" fill="none" stroke="#050607" stroke-width="12" opacity="0.36"/>
  <path d="M18 28 H58 M102 28 H142 M18 132 H58 M102 132 H142" stroke="#bd604d" stroke-width="3" stroke-linecap="round" opacity="0.62"/>
  <g stroke-linejoin="round">
  <circle cx="54" cy="50" r="8" fill="url(#accent)" stroke="#fff0c8" stroke-width="3"/>
  <circle cx="78" cy="40" r="8" fill="url(#accent)" stroke="#fff0c8" stroke-width="3"/>
  <circle cx="104" cy="50" r="8" fill="url(#accent)" stroke="#fff0c8" stroke-width="3"/>
  <circle cx="118" cy="78" r="8" fill="url(#accent)" stroke="#fff0c8" stroke-width="3"/>
  <circle cx="106" cy="106" r="8" fill="url(#accent)" stroke="#fff0c8" stroke-width="3"/>
  <circle cx="80" cy="118" r="8" fill="url(#accent)" stroke="#fff0c8" stroke-width="3"/>
  <circle cx="54" cy="106" r="8" fill="url(#accent)" stroke="#fff0c8" stroke-width="3"/>
  <circle cx="42" cy="78" r="8" fill="url(#accent)" stroke="#fff0c8" stroke-width="3"/>
  <path d="M80 68 V104 M64 86 H96" stroke="#0b0d10" stroke-width="6" stroke-linecap="round"/>
  <path d="M42 132 H118" stroke="#ee6048" stroke-width="6" stroke-linecap="round" opacity="0.62"/>
  </g>
  <rect x="8" y="8" width="144" height="144" rx="18" fill="none" stroke="#bd604d" stroke-width="3" opacity="0.76"/>
  <rect x="18" y="18" width="124" height="124" rx="14" fill="none" stroke="#101419" stroke-width="2" opacity="0.72"/>
</svg>
