<svg xmlns="http://www.w3.org/2000/svg" width="160" height="160" viewBox="0 0 160 160">
  <defs>
    <linearGradient id="bg" x1="0" y1="0" x2="1" y2="1">
      <stop offset="0" stop-color="#120f10"/>
      <stop offset="1" stop-color="#2a1711"/>
    </linearGradient>
    <radialGradient id="glow" cx="50%" cy="45%" r="58%">
      <stop offset="0" stop-color="#f0782f" stop-opacity="0.40"/>
      <stop offset="0.62" stop-color="#f0782f" stop-opacity="0.12"/>
      <stop offset="1" stop-color="#f0782f" stop-opacity="0"/>
    </radialGradient>
    <linearGradient id="metal" x1="0" y1="0" x2="1" y2="1">
      <stop offset="0" stop-color="#665040"/>
      <stop offset="0.56" stop-color="#171b1f"/>
      <stop offset="1" stop-color="#080a0d"/>
    </linearGradient>
    <linearGradient id="accent" x1="0" y1="0" x2="1" y2="1">
      <stop offset="0" stop-color="#ffd28a"/>
      <stop offset="1" stop-color="#df7d3e"/>
    </linearGradient>
  </defs>
  <rect width="160" height="160" rx="22" fill="url(#bg)"/>
  <rect width="160" height="160" rx="22" fill="url(#glow)"/>
  <path d="M18 130 C48 114 112 114 142 130" fill="none" stroke="#050607" stroke-width="12" opacity="0.36"/>
  <path d="M18 28 H58 M102 28 H142 M18 132 H58 M102 132 H142" stroke="#8b5435" stroke-width="3" stroke-linecap="round" opacity="0.62"/>
  <g stroke-linejoin="round">

  <path d="M64 22 H96 V48 L116 78 V122 C116 136 104 144 80 144 C56 144 44 136 44 122 V78 L64 48 Z" fill="url(#metal)" stroke="#ffd28a" stroke-width="6"/>
  <path d="M54 94 C68 84 92 106 106 94 V122 C106 130 96 136 80 136 C64 136 54 130 54 122 Z" fill="url(#accent)" opacity="0.78"/>
  <circle cx="72" cy="112" r="5" fill="#ffd28a" opacity="0.72"/>
  <rect x="62" y="22" width="36" height="18" rx="5" fill="#ffd28a" opacity="0.72"/>
  </g>
  <rect x="8" y="8" width="144" height="144" rx="18" fill="none" stroke="#8b5435" stroke-width="3" opacity="0.76"/>
  <rect x="18" y="18" width="124" height="124" rx="14" fill="none" stroke="#101419" stroke-width="2" opacity="0.72"/>
</svg>
