<svg xmlns="http://www.w3.org/2000/svg" width="160" height="160" viewBox="0 0 160 160">
  <defs>
    <linearGradient id="bg" x1="0" y1="0" x2="1" y2="1">
      <stop offset="0" stop-color="#120f10"/>
      <stop offset="1" stop-color="#2a1711"/>
    </linearGradient>
    <radialGradient id="glow" cx="50%" cy="45%" r="58%">
      <stop offset="0" stop-color="#f0782f" stop-opacity="0.40"/>
      <stop offset="0.62" stop-color="#f0782f" stop-opacity="0.12"/>
      <stop offset="1" stop-color="#f0782f" stop-opacity="0"/>
    </radialGradient>
    <linearGradient id="metal" x1="0" y1="0" x2="1" y2="1">
      <stop offset="0" stop-color="#665040"/>
      <stop offset="0.56" stop-color="#171b1f"/>
      <stop offset="1" stop-color="#080a0d"/>
    </linearGradient>
    <linearGradient id="accent" x1="0" y1="0" x2="1" y2="1">
      <stop offset="0" stop-color="#ffd28a"/>
      <stop offset="1" stop-color="#df7d3e"/>
    </linearGradient>
  </defs>
  <rect width="160" height="160" rx="22" fill="url(#bg)"/>
  <rect width="160" height="160" rx="22" fill="url(#glow)"/>
  <path d="M18 130 C48 114 112 114 142 130" fill="none" stroke="#050607" stroke-width="12" opacity="0.36"/>
  <path d="M18 28 H58 M102 28 H142 M18 132 H58 M102 132 H142" stroke="#8b5435" stroke-width="3" stroke-linecap="round" opacity="0.62"/>
  <g stroke-linejoin="round">

  <circle cx="80" cy="82" r="48" fill="none" stroke="#ffd28a" stroke-width="12"/>
  <circle cx="80" cy="82" r="27" fill="none" stroke="#df7d3e" stroke-width="8"/>
  <path d="M56 82 C64 58 96 58 104 82" stroke="url(#accent)" stroke-width="8" stroke-linecap="round" fill="none"/>
  <circle cx="80" cy="82" r="10" fill="#df7d3e" opacity="0.78"/>
  </g>
  <rect x="8" y="8" width="144" height="144" rx="18" fill="none" stroke="#8b5435" stroke-width="3" opacity="0.76"/>
  <rect x="18" y="18" width="124" height="124" rx="14" fill="none" stroke="#101419" stroke-width="2" opacity="0.72"/>
</svg>
