<svg xmlns="http://www.w3.org/2000/svg" width="220" height="320" viewBox="0 0 220 320">
  <defs>
    <linearGradient id="outer" x1="0" y1="0" x2="0" y2="1">
      <stop offset="0" stop-color="#5a2c25"/>
      <stop offset="0.55" stop-color="#24171a"/>
      <stop offset="1" stop-color="#100d0f"/>
    </linearGradient>
    <linearGradient id="inner" x1="0" y1="0" x2="1" y2="1">
      <stop offset="0" stop-color="#7c3727"/>
      <stop offset="0.44" stop-color="#2a1e22"/>
      <stop offset="1" stop-color="#111217"/>
    </linearGradient>
    <radialGradient id="slashGlow" cx="54%" cy="42%" r="55%">
      <stop offset="0" stop-color="#f6b35a" stop-opacity="0.52"/>
      <stop offset="0.36" stop-color="#d65d35" stop-opacity="0.28"/>
      <stop offset="1" stop-color="#111217" stop-opacity="0"/>
    </radialGradient>
  </defs>
  <rect width="220" height="320" rx="16" fill="url(#outer)"/>
  <rect x="8" y="8" width="204" height="304" rx="13" fill="url(#inner)" stroke="#e07748" stroke-width="3"/>
  <rect x="15" y="15" width="190" height="290" rx="10" fill="none" stroke="#2c1615" stroke-width="2"/>
  <circle cx="34" cy="34" r="21" fill="#f2bd62" stroke="#5a2a1c" stroke-width="3"/>
  <circle cx="34" cy="34" r="13" fill="#2a1614"/>
  <path d="M30 40 L38 28" stroke="#ffd487" stroke-width="4" stroke-linecap="round"/>
  <rect x="26" y="75" width="168" height="108" rx="10" fill="#151a20" stroke="#8d3f2b" stroke-width="2"/>
  <rect x="31" y="80" width="158" height="98" rx="8" fill="url(#slashGlow)"/>
  <path d="M48 158 C84 114 122 92 174 78 C132 118 100 146 72 174 Z" fill="#f1a24d" opacity="0.86"/>
  <path d="M70 92 C108 132 136 148 178 166" stroke="#ffd37a" stroke-width="7" stroke-linecap="round" opacity="0.72"/>
  <path d="M82 88 C120 128 148 142 184 154" stroke="#391918" stroke-width="3" stroke-linecap="round" opacity="0.9"/>
  <rect x="24" y="204" width="172" height="78" rx="9" fill="#211d20" stroke="#4d2a24" stroke-width="2"/>
  <path d="M34 224 H186 M34 246 H154 M34 268 H172" stroke="#b46945" stroke-width="4" stroke-linecap="round" opacity="0.58"/>
  <path d="M20 18 L54 18 M166 18 L200 18 M20 302 L54 302 M166 302 L200 302" stroke="#f1a24d" stroke-width="3" stroke-linecap="round" opacity="0.82"/>
</svg>
