<svg xmlns="http://www.w3.org/2000/svg" width="220" height="320" viewBox="0 0 220 320">
  <defs>
    <linearGradient id="outer" x1="0" y1="0" x2="0" y2="1">
      <stop offset="0" stop-color="#49345f"/>
      <stop offset="0.54" stop-color="#211b31"/>
      <stop offset="1" stop-color="#0f0d18"/>
    </linearGradient>
    <linearGradient id="inner" x1="0" y1="0" x2="1" y2="1">
      <stop offset="0" stop-color="#62447d"/>
      <stop offset="0.45" stop-color="#272033"/>
      <stop offset="1" stop-color="#11121b"/>
    </linearGradient>
    <radialGradient id="coreGlow" cx="53%" cy="42%" r="58%">
      <stop offset="0" stop-color="#ead7ff" stop-opacity="0.48"/>
      <stop offset="0.35" stop-color="#9a6eff" stop-opacity="0.27"/>
      <stop offset="1" stop-color="#11121b" stop-opacity="0"/>
    </radialGradient>
  </defs>
  <rect width="220" height="320" rx="16" fill="url(#outer)"/>
  <rect x="8" y="8" width="204" height="304" rx="13" fill="url(#inner)" stroke="#b996ff" stroke-width="3"/>
  <rect x="15" y="15" width="190" height="290" rx="10" fill="none" stroke="#21113a" stroke-width="2"/>
  <circle cx="34" cy="34" r="21" fill="#e7cfff" stroke="#4c3670" stroke-width="3"/>
  <circle cx="34" cy="34" r="10" fill="#1f1730"/>
  <path d="M34 18 V50 M18 34 H50" stroke="#fff0a8" stroke-width="3" stroke-linecap="round"/>
  <rect x="26" y="75" width="168" height="108" rx="10" fill="#151622" stroke="#7657b2" stroke-width="2"/>
  <rect x="31" y="80" width="158" height="98" rx="8" fill="url(#coreGlow)"/>
  <circle cx="110" cy="130" r="35" fill="#1c1730" stroke="#d9c4ff" stroke-width="5" opacity="0.92"/>
  <circle cx="110" cy="130" r="15" fill="#f6ecff" opacity="0.78"/>
  <path d="M110 94 V78 M110 182 V166 M74 130 H58 M162 130 H146" stroke="#8d75dc" stroke-width="5" stroke-linecap="round"/>
  <path d="M84 104 L70 90 M136 104 L150 90 M84 156 L70 170 M136 156 L150 170" stroke="#d9c4ff" stroke-width="3" stroke-linecap="round" opacity="0.76"/>
  <rect x="24" y="204" width="172" height="78" rx="9" fill="#211e2a" stroke="#49376a" stroke-width="2"/>
  <path d="M34 224 H186 M34 246 H154 M34 268 H172" stroke="#b996ff" stroke-width="4" stroke-linecap="round" opacity="0.50"/>
  <path d="M20 18 L54 18 M166 18 L200 18 M20 302 L54 302 M166 302 L200 302" stroke="#e2caff" stroke-width="3" stroke-linecap="round" opacity="0.78"/>
</svg>
