<svg xmlns="http://www.w3.org/2000/svg" width="256" height="256" viewBox="0 0 256 256">
  <defs>
    <linearGradient id="bg" x1="0" y1="0" x2="0" y2="1">
      <stop offset="0" stop-color="#111315"/>
      <stop offset="1" stop-color="#2a1713"/>
    </linearGradient>
    <radialGradient id="aura" cx="50%" cy="45%" r="58%">
      <stop offset="0" stop-color="#f07c32" stop-opacity="0.34"/>
      <stop offset="0.58" stop-color="#f07c32" stop-opacity="0.10"/>
      <stop offset="1" stop-color="#f07c32" stop-opacity="0"/>
    </radialGradient>
    <linearGradient id="metal" x1="0" y1="0" x2="1" y2="1">
      <stop offset="0" stop-color="#695246"/>
      <stop offset="0.54" stop-color="#24282b"/>
      <stop offset="1" stop-color="#0b0d0f"/>
    </linearGradient>
    <linearGradient id="accent" x1="0" y1="0" x2="1" y2="1">
      <stop offset="0" stop-color="#ffda85"/>
      <stop offset="1" stop-color="#e05a2f"/>
    </linearGradient>
  </defs>

  <rect width="256" height="256" rx="24" fill="url(#bg)"/>
  <rect width="256" height="256" rx="24" fill="url(#aura)"/>
  <path d="M38 218 C76 198 184 198 218 218 C192 235 72 236 38 218 Z" fill="#050607" opacity="0.42"/>
  <path d="M28 52 H228 M28 204 H228" stroke="#8f5a3b" stroke-width="2" opacity="0.22"/>
  <path d="M54 30 L42 70 M202 30 L214 70 M44 186 L30 218 M212 186 L226 218" stroke="#8f5a3b" stroke-width="3" opacity="0.28"/>

  <g stroke-linejoin="round">

  <path d="M74 212 L90 110 L128 54 L166 110 L182 212 Z" fill="url(#metal)" stroke="#08090b" stroke-width="5"/>
  <path d="M96 110 L128 76 L160 110 L150 150 H106 Z" fill="#4a2527" stroke="#8f5a3b" stroke-width="4"/>
  <circle cx="116" cy="120" r="7" fill="#ffda85"/>
  <circle cx="140" cy="120" r="7" fill="#ffda85"/>
  <path d="M78 164 L34 70" stroke="#ffda85" stroke-width="7" stroke-linecap="round"/>
  <path d="M178 164 L222 70" stroke="#ffda85" stroke-width="7" stroke-linecap="round"/>
  <path d="M52 78 L74 62 M204 78 L182 62" stroke="#fff0b8" stroke-width="4" stroke-linecap="round" opacity="0.86"/>
  <path d="M86 196 H170" stroke="url(#accent)" stroke-width="9" stroke-linecap="round"/>
  <path d="M74 210 L52 226 M182 210 L204 226" stroke="#121416" stroke-width="8" stroke-linecap="round"/>
  </g>
  <rect x="9" y="9" width="238" height="238" rx="20" fill="none" stroke="#74452f" stroke-width="3" opacity="0.72"/>
  <rect x="20" y="20" width="216" height="216" rx="16" fill="none" stroke="#111417" stroke-width="2" opacity="0.78"/>
</svg>
