<svg xmlns="http://www.w3.org/2000/svg" width="256" height="256" viewBox="0 0 256 256">
  <defs>
    <linearGradient id="bg" x1="0" y1="0" x2="0" y2="1">
      <stop offset="0" stop-color="#111019"/>
      <stop offset="1" stop-color="#251630"/>
    </linearGradient>
    <radialGradient id="aura" cx="50%" cy="45%" r="58%">
      <stop offset="0" stop-color="#b06cff" stop-opacity="0.34"/>
      <stop offset="0.58" stop-color="#b06cff" stop-opacity="0.10"/>
      <stop offset="1" stop-color="#b06cff" stop-opacity="0"/>
    </radialGradient>
    <linearGradient id="metal" x1="0" y1="0" x2="1" y2="1">
      <stop offset="0" stop-color="#5b4670"/>
      <stop offset="0.54" stop-color="#1b1b25"/>
      <stop offset="1" stop-color="#0b0d0f"/>
    </linearGradient>
    <linearGradient id="accent" x1="0" y1="0" x2="1" y2="1">
      <stop offset="0" stop-color="#f1d4ff"/>
      <stop offset="1" stop-color="#8e57ff"/>
    </linearGradient>
  </defs>

  <rect width="256" height="256" rx="24" fill="url(#bg)"/>
  <rect width="256" height="256" rx="24" fill="url(#aura)"/>
  <path d="M38 218 C76 198 184 198 218 218 C192 235 72 236 38 218 Z" fill="#050607" opacity="0.42"/>
  <path d="M28 52 H228 M28 204 H228" stroke="#735399" stroke-width="2" opacity="0.22"/>
  <path d="M54 30 L42 70 M202 30 L214 70 M44 186 L30 218 M212 186 L226 218" stroke="#735399" stroke-width="3" opacity="0.28"/>

  <g stroke-linejoin="round">

  <path d="M74 214 C78 148 98 98 128 64 C158 98 178 148 182 214 Z" fill="url(#metal)" stroke="#08070b" stroke-width="5"/>
  <path d="M96 118 C110 92 146 92 160 118 L150 158 H106 Z" fill="#28243a" stroke="#735399" stroke-width="4"/>
  <path d="M96 82 C116 62 140 62 160 82" stroke="#8e57ff" stroke-width="6" stroke-linecap="round" fill="none" opacity="0.78"/>
  <circle cx="128" cy="132" r="20" fill="#101018" stroke="#f1d4ff" stroke-width="5"/>
  <path d="M128 116 V148 M112 132 H144" stroke="#8e57ff" stroke-width="5" stroke-linecap="round"/>
  <path d="M70 154 C42 144 40 116 64 98 M186 154 C214 144 216 116 192 98" stroke="#f1d4ff" stroke-width="7" stroke-linecap="round" opacity="0.62"/>
  <path d="M96 190 H160" stroke="url(#accent)" stroke-width="8" stroke-linecap="round"/>
  </g>
  <rect x="9" y="9" width="238" height="238" rx="20" fill="none" stroke="#875ec4" stroke-width="3" opacity="0.72"/>
  <rect x="20" y="20" width="216" height="216" rx="16" fill="none" stroke="#111417" stroke-width="2" opacity="0.78"/>
</svg>
