<svg xmlns="http://www.w3.org/2000/svg" width="256" height="256" viewBox="0 0 256 256">
  <defs>
    <linearGradient id="bg" x1="0" y1="0" x2="0" y2="1">
      <stop offset="0" stop-color="#141312"/>
      <stop offset="1" stop-color="#2c1e14"/>
    </linearGradient>
    <radialGradient id="aura" cx="50%" cy="45%" r="58%">
      <stop offset="0" stop-color="#d97435" stop-opacity="0.34"/>
      <stop offset="0.58" stop-color="#d97435" stop-opacity="0.10"/>
      <stop offset="1" stop-color="#d97435" stop-opacity="0"/>
    </radialGradient>
    <linearGradient id="metal" x1="0" y1="0" x2="1" y2="1">
      <stop offset="0" stop-color="#7a5438"/>
      <stop offset="0.54" stop-color="#2b2d2f"/>
      <stop offset="1" stop-color="#0b0d0f"/>
    </linearGradient>
    <linearGradient id="accent" x1="0" y1="0" x2="1" y2="1">
      <stop offset="0" stop-color="#ffc36d"/>
      <stop offset="1" stop-color="#c46632"/>
    </linearGradient>
  </defs>

  <rect width="256" height="256" rx="24" fill="url(#bg)"/>
  <rect width="256" height="256" rx="24" fill="url(#aura)"/>
  <path d="M38 218 C76 198 184 198 218 218 C192 235 72 236 38 218 Z" fill="#050607" opacity="0.42"/>
  <path d="M28 52 H228 M28 204 H228" stroke="#83583c" stroke-width="2" opacity="0.22"/>
  <path d="M54 30 L42 70 M202 30 L214 70 M44 186 L30 218 M212 186 L226 218" stroke="#83583c" stroke-width="3" opacity="0.28"/>

  <g stroke-linejoin="round">

  <path d="M58 214 L74 96 L128 44 L182 96 L198 214 Z" fill="url(#metal)" stroke="#080908" stroke-width="6"/>
  <path d="M88 100 L128 68 L168 100 L158 166 H98 Z" fill="#543b2e" stroke="#83583c" stroke-width="5"/>
  <path d="M102 118 H154 M96 144 H160" stroke="#1b1714" stroke-width="8" stroke-linecap="round" opacity="0.68"/>
  <circle cx="112" cy="96" r="7" fill="#ffc36d"/>
  <circle cx="144" cy="96" r="7" fill="#ffc36d"/>
  <path d="M64 126 L30 160 M192 126 L226 160" stroke="#7c5438" stroke-width="12" stroke-linecap="round"/>
  <path d="M84 214 H172" stroke="#c46632" stroke-width="10" stroke-linecap="round"/>
  <path d="M78 214 L56 232 M178 214 L200 232" stroke="#141412" stroke-width="10" stroke-linecap="round"/>
  <path d="M100 72 H156" stroke="#ffc36d" stroke-width="6" stroke-linecap="round" opacity="0.62"/>
  </g>
  <rect x="9" y="9" width="238" height="238" rx="20" fill="none" stroke="#8e5838" stroke-width="3" opacity="0.72"/>
  <rect x="20" y="20" width="216" height="216" rx="16" fill="none" stroke="#111417" stroke-width="2" opacity="0.78"/>
</svg>
