<svg xmlns="http://www.w3.org/2000/svg" width="256" height="256" viewBox="0 0 256 256">
  <defs>
    <linearGradient id="bg" x1="0" y1="0" x2="0" y2="1">
      <stop offset="0" stop-color="#120f18"/>
      <stop offset="1" stop-color="#301427"/>
    </linearGradient>
    <radialGradient id="aura" cx="50%" cy="45%" r="58%">
      <stop offset="0" stop-color="#ff5d8b" stop-opacity="0.34"/>
      <stop offset="0.58" stop-color="#ff5d8b" stop-opacity="0.10"/>
      <stop offset="1" stop-color="#ff5d8b" stop-opacity="0"/>
    </radialGradient>
    <linearGradient id="metal" x1="0" y1="0" x2="1" y2="1">
      <stop offset="0" stop-color="#674155"/>
      <stop offset="0.54" stop-color="#1b1a22"/>
      <stop offset="1" stop-color="#0b0d0f"/>
    </linearGradient>
    <linearGradient id="accent" x1="0" y1="0" x2="1" y2="1">
      <stop offset="0" stop-color="#ffd8e6"/>
      <stop offset="1" stop-color="#ff4f7b"/>
    </linearGradient>
  </defs>

  <rect width="256" height="256" rx="24" fill="url(#bg)"/>
  <rect width="256" height="256" rx="24" fill="url(#aura)"/>
  <path d="M38 218 C76 198 184 198 218 218 C192 235 72 236 38 218 Z" fill="#050607" opacity="0.42"/>
  <path d="M28 52 H228 M28 204 H228" stroke="#965a76" stroke-width="2" opacity="0.22"/>
  <path d="M54 30 L42 70 M202 30 L214 70 M44 186 L30 218 M212 186 L226 218" stroke="#965a76" stroke-width="3" opacity="0.28"/>

  <g stroke-linejoin="round">

  <path d="M62 196 L72 92 H184 L194 196 Z" fill="url(#metal)" stroke="#08080a" stroke-width="5"/>
  <path d="M72 96 C98 70 158 70 184 96" fill="#31222c" stroke="#965a76" stroke-width="5"/>
  <path d="M88 118 H168 V170 H88 Z" fill="#17141a" stroke="#ffd8e6" stroke-width="4"/>
  <circle cx="128" cy="144" r="24" fill="#ff4f7b" opacity="0.74" stroke="#ffd8e6" stroke-width="4"/>
  <path d="M128 120 L118 144 H132 L120 170 L148 136 H134 L140 120 Z" fill="#ffd8e6"/>
  <path d="M62 142 L34 128 M194 142 L222 128" stroke="#965a76" stroke-width="8" stroke-linecap="round"/>
  <path d="M84 196 L62 222 M172 196 L194 222" stroke="#111216" stroke-width="8" stroke-linecap="round"/>
  <path d="M96 196 H160" stroke="url(#accent)" stroke-width="8" stroke-linecap="round"/>
  </g>
  <rect x="9" y="9" width="238" height="238" rx="20" fill="none" stroke="#ba5f82" stroke-width="3" opacity="0.72"/>
  <rect x="20" y="20" width="216" height="216" rx="16" fill="none" stroke="#111417" stroke-width="2" opacity="0.78"/>
</svg>
