<svg xmlns="http://www.w3.org/2000/svg" width="256" height="256" viewBox="0 0 256 256">
  <defs>
    <linearGradient id="bg" x1="0" y1="0" x2="0" y2="1">
      <stop offset="0" stop-color="#0d1419"/>
      <stop offset="1" stop-color="#102531"/>
    </linearGradient>
    <radialGradient id="aura" cx="50%" cy="45%" r="58%">
      <stop offset="0" stop-color="#53d7ff" stop-opacity="0.34"/>
      <stop offset="0.58" stop-color="#53d7ff" stop-opacity="0.10"/>
      <stop offset="1" stop-color="#53d7ff" stop-opacity="0"/>
    </radialGradient>
    <linearGradient id="metal" x1="0" y1="0" x2="1" y2="1">
      <stop offset="0" stop-color="#4f8fa6"/>
      <stop offset="0.54" stop-color="#17252c"/>
      <stop offset="1" stop-color="#0b0d0f"/>
    </linearGradient>
    <linearGradient id="accent" x1="0" y1="0" x2="1" y2="1">
      <stop offset="0" stop-color="#c8fbff"/>
      <stop offset="1" stop-color="#37b7ff"/>
    </linearGradient>
  </defs>

  <rect width="256" height="256" rx="24" fill="url(#bg)"/>
  <rect width="256" height="256" rx="24" fill="url(#aura)"/>
  <path d="M38 218 C76 198 184 198 218 218 C192 235 72 236 38 218 Z" fill="#050607" opacity="0.42"/>
  <path d="M28 52 H228 M28 204 H228" stroke="#4a97ad" stroke-width="2" opacity="0.22"/>
  <path d="M54 30 L42 70 M202 30 L214 70 M44 186 L30 218 M212 186 L226 218" stroke="#4a97ad" stroke-width="3" opacity="0.28"/>

  <g stroke-linejoin="round">

  <path d="M74 212 C78 144 96 92 128 58 C160 92 178 144 182 212 Z" fill="url(#metal)" stroke="#06090b" stroke-width="5"/>
  <path d="M96 112 L128 76 L160 112 L150 154 H106 Z" fill="#17313b" stroke="#4a97ad" stroke-width="4"/>
  <circle cx="116" cy="122" r="7" fill="#c8fbff"/>
  <circle cx="140" cy="122" r="7" fill="#c8fbff"/>
  <path d="M78 150 L44 112 L72 108 L58 78" stroke="#c8fbff" stroke-width="6" stroke-linecap="round" stroke-linejoin="round" fill="none"/>
  <path d="M178 150 L212 112 L184 108 L198 78" stroke="#c8fbff" stroke-width="6" stroke-linecap="round" stroke-linejoin="round" fill="none"/>
  <path d="M100 180 H156" stroke="url(#accent)" stroke-width="8" stroke-linecap="round"/>
  <circle cx="128" cy="154" r="13" fill="#37b7ff" opacity="0.58"/>
  </g>
  <rect x="9" y="9" width="238" height="238" rx="20" fill="none" stroke="#51bdd2" stroke-width="3" opacity="0.72"/>
  <rect x="20" y="20" width="216" height="216" rx="16" fill="none" stroke="#111417" stroke-width="2" opacity="0.78"/>
</svg>
