<svg xmlns="http://www.w3.org/2000/svg" width="256" height="256" viewBox="0 0 256 256">
  <defs>
    <linearGradient id="bg" x1="0" y1="0" x2="0" y2="1">
      <stop offset="0" stop-color="#101615"/>
      <stop offset="1" stop-color="#1f2b20"/>
    </linearGradient>
    <radialGradient id="aura" cx="50%" cy="45%" r="58%">
      <stop offset="0" stop-color="#6ad982" stop-opacity="0.34"/>
      <stop offset="0.58" stop-color="#6ad982" stop-opacity="0.10"/>
      <stop offset="1" stop-color="#6ad982" stop-opacity="0"/>
    </radialGradient>
    <linearGradient id="metal" x1="0" y1="0" x2="1" y2="1">
      <stop offset="0" stop-color="#647052"/>
      <stop offset="0.54" stop-color="#202923"/>
      <stop offset="1" stop-color="#0b0d0f"/>
    </linearGradient>
    <linearGradient id="accent" x1="0" y1="0" x2="1" y2="1">
      <stop offset="0" stop-color="#d8ff93"/>
      <stop offset="1" stop-color="#5dbd72"/>
    </linearGradient>
  </defs>

  <rect width="256" height="256" rx="24" fill="url(#bg)"/>
  <rect width="256" height="256" rx="24" fill="url(#aura)"/>
  <path d="M38 218 C76 198 184 198 218 218 C192 235 72 236 38 218 Z" fill="#050607" opacity="0.42"/>
  <path d="M28 52 H228 M28 204 H228" stroke="#607c50" stroke-width="2" opacity="0.22"/>
  <path d="M54 30 L42 70 M202 30 L214 70 M44 186 L30 218 M212 186 L226 218" stroke="#607c50" stroke-width="3" opacity="0.28"/>

  <g stroke-linejoin="round">

  <path d="M128 48 L192 82 L178 162 C164 190 146 210 128 220 C110 210 92 190 78 162 L64 82 Z" fill="url(#metal)" stroke="#080b09" stroke-width="5"/>
  <path d="M128 72 L168 94 L158 150 C148 170 136 184 128 190 C120 184 108 170 98 150 L88 94 Z" fill="#293129" stroke="#5dbd72" stroke-width="4"/>
  <path d="M128 42 V20 M66 84 L42 68 M190 84 L214 68 M72 162 L48 174 M184 162 L208 174" stroke="#d8ff93" stroke-width="7" stroke-linecap="round"/>
  <path d="M108 118 H148 M102 144 H154" stroke="#101412" stroke-width="7" stroke-linecap="round" opacity="0.76"/>
  <circle cx="128" cy="132" r="11" fill="#d8ff93" opacity="0.84"/>
  <path d="M80 210 H176" stroke="#607c50" stroke-width="8" stroke-linecap="round"/>
  </g>
  <rect x="9" y="9" width="238" height="238" rx="20" fill="none" stroke="#526b4e" stroke-width="3" opacity="0.72"/>
  <rect x="20" y="20" width="216" height="216" rx="16" fill="none" stroke="#111417" stroke-width="2" opacity="0.78"/>
</svg>
