<svg xmlns="http://www.w3.org/2000/svg" width="256" height="256" viewBox="0 0 256 256">
  <defs>
    <linearGradient id="bg" x1="0" y1="0" x2="0" y2="1">
      <stop offset="0" stop-color="#111019"/>
      <stop offset="1" stop-color="#251630"/>
    </linearGradient>
    <radialGradient id="aura" cx="50%" cy="45%" r="58%">
      <stop offset="0" stop-color="#b06cff" stop-opacity="0.34"/>
      <stop offset="0.58" stop-color="#b06cff" stop-opacity="0.10"/>
      <stop offset="1" stop-color="#b06cff" stop-opacity="0"/>
    </radialGradient>
    <linearGradient id="metal" x1="0" y1="0" x2="1" y2="1">
      <stop offset="0" stop-color="#5b4670"/>
      <stop offset="0.54" stop-color="#1b1b25"/>
      <stop offset="1" stop-color="#0b0d0f"/>
    </linearGradient>
    <linearGradient id="accent" x1="0" y1="0" x2="1" y2="1">
      <stop offset="0" stop-color="#f1d4ff"/>
      <stop offset="1" stop-color="#8e57ff"/>
    </linearGradient>
  </defs>

  <rect width="256" height="256" rx="24" fill="url(#bg)"/>
  <rect width="256" height="256" rx="24" fill="url(#aura)"/>
  <path d="M38 218 C76 198 184 198 218 218 C192 235 72 236 38 218 Z" fill="#050607" opacity="0.42"/>
  <path d="M28 52 H228 M28 204 H228" stroke="#735399" stroke-width="2" opacity="0.22"/>
  <path d="M54 30 L42 70 M202 30 L214 70 M44 186 L30 218 M212 186 L226 218" stroke="#735399" stroke-width="3" opacity="0.28"/>

  <g stroke-linejoin="round">

  <path d="M74 212 C80 142 98 92 128 56 C158 92 176 142 182 212 Z" fill="url(#metal)" stroke="#08070b" stroke-width="5"/>
  <path d="M96 116 C112 92 144 92 160 116 L150 158 H106 Z" fill="#2f253b" stroke="#735399" stroke-width="4"/>
  <path d="M102 82 L128 52 L154 82" stroke="#8e57ff" stroke-width="6" stroke-linecap="round" fill="none"/>
  <circle cx="116" cy="124" r="7" fill="#f1d4ff"/>
  <circle cx="140" cy="124" r="7" fill="#f1d4ff"/>
  <path d="M70 148 C44 138 40 108 62 90 M186 148 C214 138 218 108 194 90" stroke="#8e57ff" stroke-width="7" stroke-linecap="round" opacity="0.76"/>
  <path d="M96 188 H160" stroke="#f1d4ff" stroke-width="8" stroke-linecap="round" opacity="0.74"/>
  <circle cx="128" cy="162" r="14" fill="#8e57ff" opacity="0.52"/>
  </g>
  <rect x="9" y="9" width="238" height="238" rx="20" fill="none" stroke="#875ec4" stroke-width="3" opacity="0.72"/>
  <rect x="20" y="20" width="216" height="216" rx="16" fill="none" stroke="#111417" stroke-width="2" opacity="0.78"/>
</svg>
