<svg xmlns="http://www.w3.org/2000/svg" width="256" height="256" viewBox="0 0 256 256">
  <defs>
    <linearGradient id="bg" x1="0" y1="0" x2="0" y2="1">
      <stop offset="0" stop-color="#111019"/>
      <stop offset="1" stop-color="#251630"/>
    </linearGradient>
    <radialGradient id="aura" cx="50%" cy="45%" r="58%">
      <stop offset="0" stop-color="#b06cff" stop-opacity="0.34"/>
      <stop offset="0.58" stop-color="#b06cff" stop-opacity="0.10"/>
      <stop offset="1" stop-color="#b06cff" stop-opacity="0"/>
    </radialGradient>
    <linearGradient id="metal" x1="0" y1="0" x2="1" y2="1">
      <stop offset="0" stop-color="#5b4670"/>
      <stop offset="0.54" stop-color="#1b1b25"/>
      <stop offset="1" stop-color="#0b0d0f"/>
    </linearGradient>
    <linearGradient id="accent" x1="0" y1="0" x2="1" y2="1">
      <stop offset="0" stop-color="#f1d4ff"/>
      <stop offset="1" stop-color="#8e57ff"/>
    </linearGradient>
  </defs>

  <rect width="256" height="256" rx="24" fill="url(#bg)"/>
  <rect width="256" height="256" rx="24" fill="url(#aura)"/>
  <path d="M38 218 C76 198 184 198 218 218 C192 235 72 236 38 218 Z" fill="#050607" opacity="0.42"/>
  <path d="M28 52 H228 M28 204 H228" stroke="#735399" stroke-width="2" opacity="0.22"/>
  <path d="M54 30 L42 70 M202 30 L214 70 M44 186 L30 218 M212 186 L226 218" stroke="#735399" stroke-width="3" opacity="0.28"/>

  <g stroke-linejoin="round">

  <path d="M70 214 L88 108 L128 50 L168 108 L186 214 Z" fill="url(#metal)" stroke="#08070b" stroke-width="6"/>
  <path d="M94 110 L128 74 L162 110 L152 158 H104 Z" fill="#27283c" stroke="#735399" stroke-width="5"/>
  <circle cx="128" cy="136" r="24" fill="#080810" stroke="#f1d4ff" stroke-width="5"/>
  <circle cx="128" cy="136" r="10" fill="#8e57ff"/>
  <ellipse cx="128" cy="136" rx="50" ry="18" fill="none" stroke="#8e57ff" stroke-width="4" opacity="0.7"/>
  <path d="M178 166 L218 74" stroke="#f1d4ff" stroke-width="7" stroke-linecap="round"/>
  <path d="M76 130 L42 104" stroke="#735399" stroke-width="9" stroke-linecap="round"/>
  <path d="M84 204 H172" stroke="url(#accent)" stroke-width="9" stroke-linecap="round"/>
  <path d="M78 214 L56 232 M178 214 L200 232" stroke="#111117" stroke-width="8" stroke-linecap="round"/>
  </g>
  <rect x="9" y="9" width="238" height="238" rx="20" fill="none" stroke="#875ec4" stroke-width="3" opacity="0.72"/>
  <rect x="20" y="20" width="216" height="216" rx="16" fill="none" stroke="#111417" stroke-width="2" opacity="0.78"/>
</svg>
