<svg xmlns="http://www.w3.org/2000/svg" width="256" height="256" viewBox="0 0 256 256">
  <defs>
    <linearGradient id="bg" x1="0" y1="0" x2="0" y2="1">
      <stop offset="0" stop-color="#111417"/>
      <stop offset="1" stop-color="#22282d"/>
    </linearGradient>
    <radialGradient id="aura" cx="50%" cy="45%" r="58%">
      <stop offset="0" stop-color="#b8c0c8" stop-opacity="0.34"/>
      <stop offset="0.58" stop-color="#b8c0c8" stop-opacity="0.10"/>
      <stop offset="1" stop-color="#b8c0c8" stop-opacity="0"/>
    </radialGradient>
    <linearGradient id="metal" x1="0" y1="0" x2="1" y2="1">
      <stop offset="0" stop-color="#8999a2"/>
      <stop offset="0.54" stop-color="#2c3339"/>
      <stop offset="1" stop-color="#0b0d0f"/>
    </linearGradient>
    <linearGradient id="accent" x1="0" y1="0" x2="1" y2="1">
      <stop offset="0" stop-color="#f3c26d"/>
      <stop offset="1" stop-color="#6fa4ba"/>
    </linearGradient>
  </defs>

  <rect width="256" height="256" rx="24" fill="url(#bg)"/>
  <rect width="256" height="256" rx="24" fill="url(#aura)"/>
  <path d="M38 218 C76 198 184 198 218 218 C192 235 72 236 38 218 Z" fill="#050607" opacity="0.42"/>
  <path d="M28 52 H228 M28 204 H228" stroke="#65727a" stroke-width="2" opacity="0.22"/>
  <path d="M54 30 L42 70 M202 30 L214 70 M44 186 L30 218 M212 186 L226 218" stroke="#65727a" stroke-width="3" opacity="0.28"/>

  <g stroke-linejoin="round">

  <path d="M70 206 L84 102 L128 54 L172 102 L186 206 Z" fill="url(#metal)" stroke="#080b0d" stroke-width="5"/>
  <path d="M92 108 L128 76 L164 108 V158 C150 178 136 188 128 192 C120 188 106 178 92 158 Z" fill="#46525a" stroke="#f3c26d" stroke-width="5"/>
  <path d="M112 114 H144 M102 144 H154" stroke="#151a1e" stroke-width="7" stroke-linecap="round" opacity="0.72"/>
  <circle cx="128" cy="132" r="12" fill="#6fa4ba" opacity="0.82"/>
  <path d="M74 122 L42 92 M182 122 L216 92" stroke="#65727a" stroke-width="9" stroke-linecap="round"/>
  <path d="M80 206 H176" stroke="#f3c26d" stroke-width="8" stroke-linecap="round" opacity="0.72"/>
  <path d="M66 208 L44 224 M190 208 L212 224" stroke="#15191d" stroke-width="8" stroke-linecap="round"/>
  </g>
  <rect x="9" y="9" width="238" height="238" rx="20" fill="none" stroke="#7c888f" stroke-width="3" opacity="0.72"/>
  <rect x="20" y="20" width="216" height="216" rx="16" fill="none" stroke="#111417" stroke-width="2" opacity="0.78"/>
</svg>
