<svg xmlns="http://www.w3.org/2000/svg" width="256" height="256" viewBox="0 0 256 256">
  <defs>
    <linearGradient id="bg" x1="0" y1="0" x2="0" y2="1">
      <stop offset="0" stop-color="#111019"/>
      <stop offset="1" stop-color="#251630"/>
    </linearGradient>
    <radialGradient id="aura" cx="50%" cy="45%" r="58%">
      <stop offset="0" stop-color="#b06cff" stop-opacity="0.34"/>
      <stop offset="0.58" stop-color="#b06cff" stop-opacity="0.10"/>
      <stop offset="1" stop-color="#b06cff" stop-opacity="0"/>
    </radialGradient>
    <linearGradient id="metal" x1="0" y1="0" x2="1" y2="1">
      <stop offset="0" stop-color="#5b4670"/>
      <stop offset="0.54" stop-color="#1b1b25"/>
      <stop offset="1" stop-color="#0b0d0f"/>
    </linearGradient>
    <linearGradient id="accent" x1="0" y1="0" x2="1" y2="1">
      <stop offset="0" stop-color="#f1d4ff"/>
      <stop offset="1" stop-color="#8e57ff"/>
    </linearGradient>
  </defs>

  <rect width="256" height="256" rx="24" fill="url(#bg)"/>
  <rect width="256" height="256" rx="24" fill="url(#aura)"/>
  <path d="M38 218 C76 198 184 198 218 218 C192 235 72 236 38 218 Z" fill="#050607" opacity="0.42"/>
  <path d="M28 52 H228 M28 204 H228" stroke="#735399" stroke-width="2" opacity="0.22"/>
  <path d="M54 30 L42 70 M202 30 L214 70 M44 186 L30 218 M212 186 L226 218" stroke="#735399" stroke-width="3" opacity="0.28"/>

  <g stroke-linejoin="round">

  <path d="M76 214 C80 150 96 100 128 64 C160 100 176 150 180 214 Z" fill="url(#metal)" stroke="#08070b" stroke-width="5"/>
  <path d="M94 118 C108 94 148 94 162 118 L150 154 H106 Z" fill="#2b2437" stroke="#735399" stroke-width="4"/>
  <rect x="88" y="148" width="80" height="46" rx="8" fill="#15131c" stroke="#f1d4ff" stroke-width="4"/>
  <path d="M104 162 H152 M104 176 H142" stroke="#8e57ff" stroke-width="4" stroke-linecap="round" opacity="0.76"/>
  <circle cx="116" cy="124" r="6" fill="#f1d4ff"/>
  <circle cx="140" cy="124" r="6" fill="#f1d4ff"/>
  <path d="M70 146 L44 126 M186 146 L212 126" stroke="#735399" stroke-width="8" stroke-linecap="round"/>
  <path d="M174 116 L208 80" stroke="#f1d4ff" stroke-width="5" stroke-linecap="round"/>
  <circle cx="212" cy="76" r="7" fill="#8e57ff"/>
  </g>
  <rect x="9" y="9" width="238" height="238" rx="20" fill="none" stroke="#875ec4" stroke-width="3" opacity="0.72"/>
  <rect x="20" y="20" width="216" height="216" rx="16" fill="none" stroke="#111417" stroke-width="2" opacity="0.78"/>
</svg>
