<svg xmlns="http://www.w3.org/2000/svg" width="256" height="256" viewBox="0 0 256 256">
  <defs>
    <linearGradient id="bg" x1="0" y1="0" x2="0" y2="1">
      <stop offset="0" stop-color="#0d1419"/>
      <stop offset="1" stop-color="#102531"/>
    </linearGradient>
    <radialGradient id="aura" cx="50%" cy="45%" r="58%">
      <stop offset="0" stop-color="#53d7ff" stop-opacity="0.34"/>
      <stop offset="0.58" stop-color="#53d7ff" stop-opacity="0.10"/>
      <stop offset="1" stop-color="#53d7ff" stop-opacity="0"/>
    </radialGradient>
    <linearGradient id="metal" x1="0" y1="0" x2="1" y2="1">
      <stop offset="0" stop-color="#4f8fa6"/>
      <stop offset="0.54" stop-color="#17252c"/>
      <stop offset="1" stop-color="#0b0d0f"/>
    </linearGradient>
    <linearGradient id="accent" x1="0" y1="0" x2="1" y2="1">
      <stop offset="0" stop-color="#c8fbff"/>
      <stop offset="1" stop-color="#37b7ff"/>
    </linearGradient>
  </defs>

  <rect width="256" height="256" rx="24" fill="url(#bg)"/>
  <rect width="256" height="256" rx="24" fill="url(#aura)"/>
  <path d="M38 218 C76 198 184 198 218 218 C192 235 72 236 38 218 Z" fill="#050607" opacity="0.42"/>
  <path d="M28 52 H228 M28 204 H228" stroke="#4a97ad" stroke-width="2" opacity="0.22"/>
  <path d="M54 30 L42 70 M202 30 L214 70 M44 186 L30 218 M212 186 L226 218" stroke="#4a97ad" stroke-width="3" opacity="0.28"/>

  <g stroke-linejoin="round">

  <path d="M72 216 C76 146 96 86 128 44 C160 86 180 146 184 216 Z" fill="url(#metal)" stroke="#06090b" stroke-width="6"/>
  <path d="M94 104 L128 58 L162 104 L152 158 H104 Z" fill="#153947" stroke="#c8fbff" stroke-width="5"/>
  <circle cx="128" cy="122" r="25" fill="#37b7ff" opacity="0.58" stroke="#c8fbff" stroke-width="4"/>
  <path d="M128 92 L112 126 H132 L118 160 L152 116 H132 L144 92 Z" fill="#c8fbff"/>
  <path d="M62 146 L30 112 L58 112 L46 78" stroke="#c8fbff" stroke-width="7" stroke-linecap="round" stroke-linejoin="round" fill="none"/>
  <path d="M194 146 L226 112 L198 112 L210 78" stroke="#c8fbff" stroke-width="7" stroke-linecap="round" stroke-linejoin="round" fill="none"/>
  <path d="M90 190 H166" stroke="url(#accent)" stroke-width="9" stroke-linecap="round"/>
  <path d="M82 216 L60 234 M174 216 L196 234" stroke="#11171b" stroke-width="8" stroke-linecap="round"/>
  </g>
  <rect x="9" y="9" width="238" height="238" rx="20" fill="none" stroke="#51bdd2" stroke-width="3" opacity="0.72"/>
  <rect x="20" y="20" width="216" height="216" rx="16" fill="none" stroke="#111417" stroke-width="2" opacity="0.78"/>
</svg>
