<svg xmlns="http://www.w3.org/2000/svg" width="256" height="256" viewBox="0 0 256 256">
  <defs>
    <linearGradient id="bg" x1="0" y1="0" x2="0" y2="1">
      <stop offset="0" stop-color="#111315"/>
      <stop offset="1" stop-color="#2a1713"/>
    </linearGradient>
    <radialGradient id="aura" cx="50%" cy="45%" r="58%">
      <stop offset="0" stop-color="#f07c32" stop-opacity="0.34"/>
      <stop offset="0.58" stop-color="#f07c32" stop-opacity="0.10"/>
      <stop offset="1" stop-color="#f07c32" stop-opacity="0"/>
    </radialGradient>
    <linearGradient id="metal" x1="0" y1="0" x2="1" y2="1">
      <stop offset="0" stop-color="#695246"/>
      <stop offset="0.54" stop-color="#24282b"/>
      <stop offset="1" stop-color="#0b0d0f"/>
    </linearGradient>
    <linearGradient id="accent" x1="0" y1="0" x2="1" y2="1">
      <stop offset="0" stop-color="#ffda85"/>
      <stop offset="1" stop-color="#e05a2f"/>
    </linearGradient>
  </defs>

  <rect width="256" height="256" rx="24" fill="url(#bg)"/>
  <rect width="256" height="256" rx="24" fill="url(#aura)"/>
  <path d="M38 218 C76 198 184 198 218 218 C192 235 72 236 38 218 Z" fill="#050607" opacity="0.42"/>
  <path d="M28 52 H228 M28 204 H228" stroke="#8f5a3b" stroke-width="2" opacity="0.22"/>
  <path d="M54 30 L42 70 M202 30 L214 70 M44 186 L30 218 M212 186 L226 218" stroke="#8f5a3b" stroke-width="3" opacity="0.28"/>

  <g stroke-linejoin="round">

  <path d="M70 204 C74 124 94 68 128 46 C162 68 182 124 186 204 C168 192 154 218 138 204 C126 194 116 218 100 204 C90 196 80 206 70 204 Z" fill="url(#metal)" stroke="#090a0b" stroke-width="5" opacity="0.92"/>
  <path d="M96 120 C112 94 144 94 160 120" fill="#2b1715" stroke="#8f5a3b" stroke-width="4"/>
  <circle cx="112" cy="124" r="8" fill="#ffda85"/>
  <circle cx="144" cy="124" r="8" fill="#ffda85"/>
  <path d="M76 154 C50 146 44 120 62 98 M180 154 C208 146 214 120 194 98" stroke="#e05a2f" stroke-width="6" stroke-linecap="round" opacity="0.7"/>
  <path d="M100 170 C118 180 138 180 156 170" stroke="#ffda85" stroke-width="5" stroke-linecap="round" opacity="0.64"/>
  <path d="M84 214 C104 198 114 226 128 210 C142 226 154 198 172 214" fill="none" stroke="#8f5a3b" stroke-width="5" stroke-linecap="round" opacity="0.72"/>
  </g>
  <rect x="9" y="9" width="238" height="238" rx="20" fill="none" stroke="#74452f" stroke-width="3" opacity="0.72"/>
  <rect x="20" y="20" width="216" height="216" rx="16" fill="none" stroke="#111417" stroke-width="2" opacity="0.78"/>
</svg>
