<svg xmlns="http://www.w3.org/2000/svg" width="256" height="256" viewBox="0 0 256 256">
  <defs>
    <linearGradient id="bg" x1="0" y1="0" x2="0" y2="1">
      <stop offset="0" stop-color="#11161b"/>
      <stop offset="1" stop-color="#1e252b"/>
    </linearGradient>
    <radialGradient id="aura" cx="50%" cy="45%" r="58%">
      <stop offset="0" stop-color="#d36b3d" stop-opacity="0.34"/>
      <stop offset="0.58" stop-color="#d36b3d" stop-opacity="0.10"/>
      <stop offset="1" stop-color="#d36b3d" stop-opacity="0"/>
    </radialGradient>
    <linearGradient id="metal" x1="0" y1="0" x2="1" y2="1">
      <stop offset="0" stop-color="#60707a"/>
      <stop offset="0.54" stop-color="#283037"/>
      <stop offset="1" stop-color="#0b0d0f"/>
    </linearGradient>
    <linearGradient id="accent" x1="0" y1="0" x2="1" y2="1">
      <stop offset="0" stop-color="#ffd17a"/>
      <stop offset="1" stop-color="#b85c37"/>
    </linearGradient>
  </defs>

  <rect width="256" height="256" rx="24" fill="url(#bg)"/>
  <rect width="256" height="256" rx="24" fill="url(#aura)"/>
  <path d="M38 218 C76 198 184 198 218 218 C192 235 72 236 38 218 Z" fill="#050607" opacity="0.42"/>
  <path d="M28 52 H228 M28 204 H228" stroke="#7c5944" stroke-width="2" opacity="0.22"/>
  <path d="M54 30 L42 70 M202 30 L214 70 M44 186 L30 218 M212 186 L226 218" stroke="#7c5944" stroke-width="3" opacity="0.28"/>

  <g stroke-linejoin="round">

  <path d="M42 164 L82 116 L144 120 L178 84 L218 104 L198 170 L154 200 L74 194 Z" fill="url(#metal)" stroke="#080a0c" stroke-width="5"/>
  <path d="M164 92 L184 48 L206 108 Z" fill="#7c8d96" stroke="#7c5944" stroke-width="4"/>
  <path d="M64 172 L48 212 M116 176 L104 216 M172 164 L206 196" stroke="#8f573f" stroke-width="9" stroke-linecap="round"/>
  <path d="M92 132 C116 144 146 144 172 124" stroke="#b85c37" stroke-width="5" opacity="0.64"/>
  <circle cx="178" cy="116" r="7" fill="#ffd17a"/>
  <path d="M194 124 L220 122" stroke="#ffd17a" stroke-width="4" stroke-linecap="round"/>
  <path d="M44 158 C30 132 34 110 56 98" stroke="#7c5944" stroke-width="6" stroke-linecap="round" opacity="0.7"/>
  </g>
  <rect x="9" y="9" width="238" height="238" rx="20" fill="none" stroke="#56636c" stroke-width="3" opacity="0.72"/>
  <rect x="20" y="20" width="216" height="216" rx="16" fill="none" stroke="#111417" stroke-width="2" opacity="0.78"/>
</svg>
