<svg xmlns="http://www.w3.org/2000/svg" width="420" height="220" viewBox="0 0 420 220">
  <defs>
    <linearGradient id="bg" x1="0" y1="0" x2="1" y2="1">
      <stop offset="0" stop-color="#20242a"/>
      <stop offset="0.5" stop-color="#17191f"/>
      <stop offset="1" stop-color="#0c0e12"/>
    </linearGradient>
    <radialGradient id="light" cx="48%" cy="48%" r="52%">
      <stop offset="0" stop-color="#f3a65b" stop-opacity="0.42"/>
      <stop offset="0.42" stop-color="#5b6fa3" stop-opacity="0.20"/>
      <stop offset="1" stop-color="#0c0e12" stop-opacity="0"/>
    </radialGradient>
  </defs>
  <rect width="420" height="220" rx="14" fill="url(#bg)"/>
  <rect width="420" height="220" rx="14" fill="url(#light)"/>
  <path d="M34 174 L86 70 H334 L386 174 Z" fill="#11151a" stroke="#56606a" stroke-width="4"/>
  <path d="M112 80 H308 L282 154 H138 Z" fill="#211918" stroke="#b66a43" stroke-width="4"/>
  <circle cx="210" cy="116" r="34" fill="#e17c38" opacity="0.55"/>
  <circle cx="210" cy="116" r="18" fill="#ffd18a" opacity="0.72"/>
  <path d="M86 70 L138 154 M334 70 L282 154 M112 80 L34 174 M308 80 L386 174" stroke="#2b3036" stroke-width="5"/>
  <path d="M64 188 H356" stroke="#8b6a50" stroke-width="5" stroke-linecap="round"/>
  <path d="M132 190 C162 176 190 204 220 188 C254 168 282 204 316 184" fill="none" stroke="#6bdcf1" stroke-width="4" stroke-linecap="round" opacity="0.58"/>
  <rect x="12" y="12" width="396" height="196" rx="10" fill="none" stroke="#59606a" stroke-width="2" opacity="0.58"/>
</svg>
