<svg xmlns="http://www.w3.org/2000/svg" viewBox="0 0 96 96">
  <defs>
    <linearGradient id="chestBody" x1="18" y1="30" x2="78" y2="78" gradientUnits="userSpaceOnUse">
      <stop offset="0" stop-color="#8a4a20"/>
      <stop offset="0.48" stop-color="#5a2b16"/>
      <stop offset="1" stop-color="#2c160e"/>
    </linearGradient>
    <linearGradient id="goldLid" x1="20" y1="18" x2="76" y2="52" gradientUnits="userSpaceOnUse">
      <stop offset="0" stop-color="#ffe08a"/>
      <stop offset="0.46" stop-color="#c7892e"/>
      <stop offset="1" stop-color="#704017"/>
    </linearGradient>
    <radialGradient id="glow" cx="50%" cy="48%" r="50%">
      <stop offset="0" stop-color="#fff5b8" stop-opacity="0.8"/>
      <stop offset="0.54" stop-color="#e3a23c" stop-opacity="0.22"/>
      <stop offset="1" stop-color="#1b1009" stop-opacity="0"/>
    </radialGradient>
  </defs>
  <circle cx="48" cy="48" r="42" fill="#120d0a"/>
  <circle cx="48" cy="48" r="36" fill="url(#glow)"/>
  <path d="M20 42c2-14 12-22 28-22s26 8 28 22v7H20z" fill="url(#goldLid)" stroke="#f2c66b" stroke-width="4" stroke-linejoin="round"/>
  <path d="M18 42h60v32c0 4-3 7-7 7H25c-4 0-7-3-7-7z" fill="url(#chestBody)" stroke="#efbd65" stroke-width="4" stroke-linejoin="round"/>
  <path d="M18 53h60" stroke="#f1c165" stroke-width="5" stroke-linecap="round"/>
  <path d="M31 24v57M65 24v57" stroke="#d79a46" stroke-width="5" stroke-linecap="round"/>
  <rect x="40" y="48" width="16" height="20" rx="3" fill="#1d130d" stroke="#ffe08a" stroke-width="4"/>
  <circle cx="48" cy="56" r="3" fill="#ffe08a"/>
  <path d="M30 38c5-6 11-9 18-9s13 3 18 9" fill="none" stroke="#fff0a8" stroke-width="3" stroke-linecap="round" opacity="0.75"/>
</svg>
