<svg xmlns="http://www.w3.org/2000/svg" width="256" height="256" viewBox="0 0 256 256">
  <defs>
    <linearGradient id="bg" x1="0" y1="0" x2="0" y2="1">
      <stop offset="0" stop-color="#2b171a"/>
      <stop offset="0.56" stop-color="#111114"/>
      <stop offset="1" stop-color="#050607"/>
    </linearGradient>
    <radialGradient id="whiteFire" cx="50%" cy="39%" r="72%">
      <stop offset="0" stop-color="#fff3ce" stop-opacity="0.76"/>
      <stop offset="0.28" stop-color="#e85a45" stop-opacity="0.34"/>
      <stop offset="1" stop-color="#050607" stop-opacity="0"/>
    </radialGradient>
    <linearGradient id="robe" x1="0" y1="0" x2="1" y2="1">
      <stop offset="0" stop-color="#6d3029"/>
      <stop offset="0.52" stop-color="#2d1a1b"/>
      <stop offset="1" stop-color="#0f0d10"/>
    </linearGradient>
    <linearGradient id="bone" x1="0" y1="0" x2="1" y2="1">
      <stop offset="0" stop-color="#fff0bf"/>
      <stop offset="0.58" stop-color="#cc9460"/>
      <stop offset="1" stop-color="#6d3b2d"/>
    </linearGradient>
  </defs>
  <rect width="256" height="256" rx="24" fill="url(#bg)"/>
  <rect width="256" height="256" rx="24" fill="url(#whiteFire)"/>
  <path d="M42 224 C58 161 83 123 128 123 C173 123 198 161 214 224 Z" fill="url(#robe)" stroke="#cc6658" stroke-width="4"/>
  <path d="M79 119 C84 79 103 54 128 54 C153 54 172 79 177 119 C161 103 145 96 128 96 C111 96 95 103 79 119 Z" fill="#151116" stroke="#e18f66" stroke-width="3"/>
  <circle cx="128" cy="87" r="31" fill="#bd8357"/>
  <path d="M93 91 C105 55 151 55 163 91 C147 81 109 81 93 91 Z" fill="#1e1316"/>
  <path d="M101 99 C113 111 143 111 155 99 L149 121 C138 129 118 129 107 121 Z" fill="#1a1718" stroke="#fff0c1" stroke-width="3"/>
  <path d="M69 70 C88 43 111 34 128 34 C145 34 168 43 187 70" fill="none" stroke="#f6d69b" stroke-width="5" stroke-linecap="round"/>
  <path d="M58 79 L78 110 M198 79 L178 110" stroke="#d66355" stroke-width="7" stroke-linecap="round"/>
  <path d="M86 154 C108 139 148 139 170 154 L182 226 H74 Z" fill="#181519" stroke="#7d3c35" stroke-width="3"/>
  <path d="M128 121 C109 151 110 180 128 210 C148 178 147 150 128 121 Z" fill="#fff2c8"/>
  <path d="M128 143 C118 162 119 181 128 198 C139 177 138 160 128 143 Z" fill="#dc4637"/>
  <path d="M96 172 C113 185 143 185 160 172" fill="none" stroke="#fff0bf" stroke-width="4" stroke-linecap="round"/>
  <path d="M72 190 C96 211 160 211 184 190" fill="none" stroke="#c95d50" stroke-width="8" stroke-linecap="round"/>
  <path d="M83 224 C95 202 109 194 128 194 C147 194 161 202 173 224" fill="none" stroke="#fff0bf" stroke-width="3" stroke-linecap="round" opacity="0.74"/>
  <g stroke="#9e493f" stroke-width="2" opacity="0.62">
    <path d="M43 143 L76 133"/>
    <path d="M213 143 L180 133"/>
    <path d="M50 181 L77 174"/>
    <path d="M206 181 L179 174"/>
  </g>
  <g fill="#fff1c9">
    <circle cx="49" cy="160" r="2.7"/>
    <circle cx="207" cy="160" r="2.7"/>
    <circle cx="82" cy="46" r="2.2"/>
    <circle cx="174" cy="46" r="2.2"/>
    <circle cx="128" cy="29" r="2.4"/>
  </g>
  <g fill="#dc4b3d" opacity="0.82">
    <circle cx="40" cy="199" r="2.8"/>
    <circle cx="216" cy="199" r="2.8"/>
    <circle cx="54" cy="55" r="2.3"/>
    <circle cx="202" cy="55" r="2.3"/>
  </g>
  <rect x="10" y="10" width="236" height="236" rx="20" fill="none" stroke="#d46b5d" stroke-width="3" opacity="0.86"/>
  <rect x="18" y="18" width="220" height="220" rx="16" fill="none" stroke="#2d1215" stroke-width="4" opacity="0.92"/>
</svg>
