<svg xmlns="http://www.w3.org/2000/svg" width="256" height="256" viewBox="0 0 256 256">
  <defs>
    <linearGradient id="bg" x1="0" y1="0" x2="0" y2="1">
      <stop offset="0" stop-color="#2d2019"/>
      <stop offset="0.55" stop-color="#14171a"/>
      <stop offset="1" stop-color="#07090b"/>
    </linearGradient>
    <radialGradient id="forgeGlow" cx="52%" cy="42%" r="70%">
      <stop offset="0" stop-color="#ffc069" stop-opacity="0.68"/>
      <stop offset="0.42" stop-color="#b43b24" stop-opacity="0.26"/>
      <stop offset="1" stop-color="#07090b" stop-opacity="0"/>
    </radialGradient>
    <linearGradient id="cloak" x1="0" y1="0" x2="1" y2="1">
      <stop offset="0" stop-color="#5e2a1f"/>
      <stop offset="0.55" stop-color="#2c1919"/>
      <stop offset="1" stop-color="#120f12"/>
    </linearGradient>
    <linearGradient id="steel" x1="0" y1="0" x2="1" y2="1">
      <stop offset="0" stop-color="#77808a"/>
      <stop offset="0.42" stop-color="#2b353d"/>
      <stop offset="1" stop-color="#11171d"/>
    </linearGradient>
    <linearGradient id="emberBlade" x1="0" y1="1" x2="1" y2="0">
      <stop offset="0" stop-color="#742719"/>
      <stop offset="0.48" stop-color="#ff8a35"/>
      <stop offset="1" stop-color="#ffe2a8"/>
    </linearGradient>
  </defs>
  <rect width="256" height="256" rx="24" fill="url(#bg)"/>
  <rect width="256" height="256" rx="24" fill="url(#forgeGlow)"/>
  <path d="M20 214 C54 188 67 150 64 104 C82 63 111 42 128 42 C145 42 174 63 192 104 C189 150 202 188 236 214 L236 238 H20 Z" fill="#101317" stroke="#6f3b2d" stroke-width="4"/>
  <path d="M38 218 C67 176 75 130 82 96 C97 74 114 64 128 64 C142 64 159 74 174 96 C181 130 189 176 218 218 Z" fill="url(#cloak)" stroke="#9a5134" stroke-width="3"/>
  <path d="M80 114 C88 78 104 60 128 60 C152 60 168 78 176 114 C159 101 145 96 128 96 C111 96 97 101 80 114 Z" fill="#171216" stroke="#b25d38" stroke-width="3"/>
  <circle cx="128" cy="88" r="30" fill="#c98d58"/>
  <path d="M91 84 C105 50 151 50 165 84 C151 75 105 75 91 84 Z" fill="#20151a"/>
  <path d="M100 91 C113 101 143 101 156 91 L150 118 C139 126 117 126 106 118 Z" fill="#1b2026" stroke="#ff9c45" stroke-width="3"/>
  <path d="M111 102 H145" stroke="#ffd28a" stroke-width="4" stroke-linecap="round"/>
  <path d="M70 153 L105 124 L128 190 L151 124 L186 153 L198 226 H58 Z" fill="url(#steel)" stroke="#8f5639" stroke-width="4"/>
  <path d="M86 152 L111 135 L128 190 L145 135 L170 152" fill="none" stroke="#f08b3c" stroke-width="5" stroke-linecap="round"/>
  <path d="M52 210 L188 72" stroke="#5b2117" stroke-width="18" stroke-linecap="round"/>
  <path d="M59 204 L195 66" stroke="url(#emberBlade)" stroke-width="11" stroke-linecap="round"/>
  <path d="M68 195 L204 58" stroke="#fff0c2" stroke-width="3.5" stroke-linecap="round"/>
  <path d="M53 184 C81 199 111 202 128 202 C145 202 175 199 203 184" fill="none" stroke="#ff8b3a" stroke-width="6" stroke-linecap="round" opacity="0.75"/>
  <path d="M78 221 C91 201 107 194 128 194 C149 194 165 201 178 221" fill="none" stroke="#ffd18a" stroke-width="3" stroke-linecap="round" opacity="0.7"/>
  <g stroke="#a94828" stroke-width="2" opacity="0.55">
    <path d="M38 138 L66 128"/>
    <path d="M218 138 L190 128"/>
    <path d="M45 88 L76 102"/>
    <path d="M211 88 L180 102"/>
  </g>
  <g fill="#ffad4d">
    <circle cx="49" cy="57" r="3.2"/>
    <circle cx="207" cy="68" r="2.8"/>
    <circle cx="39" cy="173" r="2.5"/>
    <circle cx="217" cy="184" r="3.4"/>
    <circle cx="97" cy="43" r="2.2"/>
    <circle cx="161" cy="43" r="2.2"/>
  </g>
  <rect x="10" y="10" width="236" height="236" rx="20" fill="none" stroke="#d17442" stroke-width="3" opacity="0.85"/>
  <rect x="18" y="18" width="220" height="220" rx="16" fill="none" stroke="#2d1915" stroke-width="4" opacity="0.92"/>
</svg>
