<svg xmlns="http://www.w3.org/2000/svg" width="160" height="160" viewBox="0 0 160 160">
  <defs>
    <linearGradient id="bg" x1="0" y1="0" x2="0" y2="1">
      <stop offset="0" stop-color="#14242a"/>
      <stop offset="1" stop-color="#0a0d10"/>
    </linearGradient>
    <radialGradient id="glow" cx="50%" cy="48%" r="52%">
      <stop offset="0" stop-color="#74e8ff" stop-opacity="0.54"/>
      <stop offset="0.45" stop-color="#2f8ca8" stop-opacity="0.24"/>
      <stop offset="1" stop-color="#0a0d10" stop-opacity="0"/>
    </radialGradient>
    <linearGradient id="liquid" x1="0" y1="0" x2="0" y2="1">
      <stop offset="0" stop-color="#a7f7ff"/>
      <stop offset="1" stop-color="#258aac"/>
    </linearGradient>
  </defs>
  <rect width="160" height="160" rx="22" fill="url(#bg)"/>
  <rect width="160" height="160" rx="22" fill="url(#glow)"/>
  <path d="M64 24 H96 V48 L116 80 V122 C116 134 106 142 80 142 C54 142 44 134 44 122 V80 L64 48 Z" fill="#111820" stroke="#91efff" stroke-width="6"/>
  <path d="M56 92 C72 82 90 104 106 92 V120 C106 128 98 134 80 134 C62 134 54 128 54 120 Z" fill="url(#liquid)" opacity="0.82"/>
  <rect x="62" y="24" width="36" height="18" rx="5" fill="#d8c08a" stroke="#5b4932" stroke-width="3"/>
  <path d="M62 64 H98" stroke="#d9fbff" stroke-width="4" stroke-linecap="round" opacity="0.82"/>
  <circle cx="72" cy="108" r="5" fill="#d9fbff" opacity="0.66"/>
  <circle cx="92" cy="116" r="3.5" fill="#d9fbff" opacity="0.58"/>
  <rect x="8" y="8" width="144" height="144" rx="18" fill="none" stroke="#3d7788" stroke-width="2"/>
</svg>
