<svg xmlns="http://www.w3.org/2000/svg" width="160" height="160" viewBox="0 0 160 160">
  <defs>
    <linearGradient id="bg" x1="0" y1="0" x2="0" y2="1">
      <stop offset="0" stop-color="#2a2521"/>
      <stop offset="1" stop-color="#101112"/>
    </linearGradient>
    <radialGradient id="glow" cx="50%" cy="42%" r="54%">
      <stop offset="0" stop-color="#f4c979" stop-opacity="0.55"/>
      <stop offset="0.44" stop-color="#a45e36" stop-opacity="0.26"/>
      <stop offset="1" stop-color="#101112" stop-opacity="0"/>
    </radialGradient>
  </defs>
  <rect width="160" height="160" rx="22" fill="url(#bg)"/>
  <rect width="160" height="160" rx="22" fill="url(#glow)"/>
  <path d="M80 24 L118 44 L126 88 C114 118 98 132 80 140 C62 132 46 118 34 88 L42 44 Z" fill="#2b2523" stroke="#d19a56" stroke-width="6"/>
  <path d="M80 42 L104 56 L110 84 C102 104 92 114 80 120 C68 114 58 104 50 84 L56 56 Z" fill="#101214" stroke="#6bdcf1" stroke-width="4" opacity="0.92"/>
  <path d="M80 46 L74 78 H88 L72 112 L102 70 H86 L94 46 Z" fill="#f6d06f"/>
  <path d="M50 84 H110" stroke="#d19a56" stroke-width="4" stroke-linecap="round" opacity="0.74"/>
  <rect x="8" y="8" width="144" height="144" rx="18" fill="none" stroke="#5f4c37" stroke-width="2"/>
</svg>
