<svg xmlns="http://www.w3.org/2000/svg" width="1280" height="720" viewBox="0 0 1280 720">
  <defs>
    <linearGradient id="sky" x1="0" y1="0" x2="0" y2="1">
      <stop offset="0" stop-color="#101820"/>
      <stop offset="0.45" stop-color="#18151a"/>
      <stop offset="1" stop-color="#05070a"/>
    </linearGradient>
    <radialGradient id="coreGlow" cx="52%" cy="48%" r="64%">
      <stop offset="0" stop-color="#ef7a32" stop-opacity="0.36"/>
      <stop offset="0.38" stop-color="#9b3828" stop-opacity="0.20"/>
      <stop offset="1" stop-color="#0a1014" stop-opacity="0"/>
    </radialGradient>
    <radialGradient id="arcGlow" cx="20%" cy="20%" r="48%">
      <stop offset="0" stop-color="#54c7d8" stop-opacity="0.18"/>
      <stop offset="0.55" stop-color="#1a5160" stop-opacity="0.09"/>
      <stop offset="1" stop-color="#0a1014" stop-opacity="0"/>
    </radialGradient>
    <linearGradient id="steel" x1="0" y1="0" x2="1" y2="1">
      <stop offset="0" stop-color="#39444b"/>
      <stop offset="0.5" stop-color="#171d22"/>
      <stop offset="1" stop-color="#07090c"/>
    </linearGradient>
    <linearGradient id="floor" x1="0" y1="0" x2="0" y2="1">
      <stop offset="0" stop-color="#201b19"/>
      <stop offset="1" stop-color="#07080a"/>
    </linearGradient>
    <linearGradient id="emberLine" x1="0" y1="0" x2="1" y2="0">
      <stop offset="0" stop-color="#5a271d" stop-opacity="0"/>
      <stop offset="0.5" stop-color="#f0903e" stop-opacity="0.76"/>
      <stop offset="1" stop-color="#5a271d" stop-opacity="0"/>
    </linearGradient>
    <linearGradient id="cyanLine" x1="0" y1="0" x2="1" y2="0">
      <stop offset="0" stop-color="#1a5660" stop-opacity="0"/>
      <stop offset="0.5" stop-color="#70dce8" stop-opacity="0.58"/>
      <stop offset="1" stop-color="#1a5660" stop-opacity="0"/>
    </linearGradient>
    <filter id="softBlur" x="-20%" y="-20%" width="140%" height="140%">
      <feGaussianBlur stdDeviation="5"/>
    </filter>
  </defs>

  <rect width="1280" height="720" fill="url(#sky)"/>
  <rect width="1280" height="720" fill="url(#coreGlow)"/>
  <rect width="1280" height="720" fill="url(#arcGlow)"/>

  <g opacity="0.72">
    <path d="M0 430 L118 380 L248 420 L386 354 L540 400 L662 322 L806 388 L946 326 L1118 374 L1280 336 L1280 720 L0 720 Z" fill="#101418"/>
    <path d="M0 486 L162 438 L314 478 L478 422 L632 476 L816 414 L1000 462 L1280 408 L1280 720 L0 720 Z" fill="#15100f"/>
    <rect x="0" y="520" width="1280" height="200" fill="url(#floor)"/>
  </g>

  <g opacity="0.82">
    <rect x="70" y="98" width="76" height="362" rx="8" fill="url(#steel)" stroke="#4d5a60" stroke-width="2" opacity="0.84"/>
    <rect x="1088" y="88" width="90" height="388" rx="8" fill="url(#steel)" stroke="#584439" stroke-width="2" opacity="0.84"/>
    <rect x="568" y="114" width="142" height="286" rx="12" fill="#171e22" stroke="#55382c" stroke-width="4" opacity="0.94"/>
    <path d="M510 420 C542 290 744 290 774 420 Z" fill="#201410" stroke="#70432d" stroke-width="5"/>
    <path d="M556 416 C578 334 706 334 728 416 Z" fill="#e56c2c" opacity="0.52" filter="url(#softBlur)"/>
  </g>

  <g fill="none" stroke-linecap="round" opacity="0.55">
    <path d="M132 166 C290 240 388 132 536 196" stroke="#715945" stroke-width="7"/>
    <path d="M706 176 C858 104 980 238 1134 150" stroke="#694734" stroke-width="7"/>
    <path d="M138 442 C298 348 408 510 590 414 C760 318 904 492 1100 374" stroke="#a26035" stroke-width="5"/>
    <path d="M180 88 L146 420 M1090 84 L1050 420 M662 112 L622 410" stroke="#2b3135" stroke-width="13"/>
    <path d="M212 156 C300 128 430 154 520 116" stroke="url(#cyanLine)" stroke-width="4"/>
    <path d="M770 136 C888 194 986 122 1114 180" stroke="url(#cyanLine)" stroke-width="4"/>
  </g>

  <g opacity="0.9">
    <rect x="44" y="552" width="1192" height="2" fill="#6f4b34" opacity="0.70"/>
    <rect x="0" y="610" width="1280" height="2" fill="#24292d" opacity="0.78"/>
    <path d="M96 574 H360 M476 562 H764 M872 584 H1148" stroke="url(#emberLine)" stroke-width="6" stroke-linecap="round"/>
    <path d="M248 640 H392 M726 636 H908" stroke="url(#cyanLine)" stroke-width="4" stroke-linecap="round"/>
    <g fill="#f08a3d" opacity="0.76">
      <circle cx="190" cy="534" r="2.5"/>
      <circle cx="438" cy="566" r="2"/>
      <circle cx="708" cy="542" r="2.8"/>
      <circle cx="980" cy="528" r="2.2"/>
      <circle cx="1114" cy="598" r="1.9"/>
    </g>
  </g>

  <g opacity="0.36" stroke="#6f7880" stroke-width="1">
    <path d="M38 48 H330 M950 48 H1242 M38 672 H330 M950 672 H1242"/>
    <path d="M52 62 V248 M1228 62 V248 M52 472 V658 M1228 472 V658"/>
  </g>

  <rect width="1280" height="720" fill="#020305" opacity="0.24"/>
  <rect x="20" y="20" width="1240" height="680" fill="none" stroke="#263038" stroke-width="2" opacity="0.62"/>
</svg>
