<svg xmlns="http://www.w3.org/2000/svg" width="160" height="160" viewBox="0 0 160 160">
  <defs>
    <linearGradient id="bg" x1="0" y1="0" x2="1" y2="1">
      <stop offset="0" stop-color="#111417"/>
      <stop offset="1" stop-color="#23282d"/>
    </linearGradient>
    <radialGradient id="glow" cx="50%" cy="45%" r="58%">
      <stop offset="0" stop-color="#b8c6cf" stop-opacity="0.40"/>
      <stop offset="0.62" stop-color="#b8c6cf" stop-opacity="0.12"/>
      <stop offset="1" stop-color="#b8c6cf" stop-opacity="0"/>
    </radialGradient>
    <linearGradient id="metal" x1="0" y1="0" x2="1" y2="1">
      <stop offset="0" stop-color="#687883"/>
      <stop offset="0.56" stop-color="#171b20"/>
      <stop offset="1" stop-color="#080a0d"/>
    </linearGradient>
    <linearGradient id="accent" x1="0" y1="0" x2="1" y2="1">
      <stop offset="0" stop-color="#f4c874"/>
      <stop offset="1" stop-color="#8fa3ad"/>
    </linearGradient>
  </defs>
  <rect width="160" height="160" rx="22" fill="url(#bg)"/>
  <rect width="160" height="160" rx="22" fill="url(#glow)"/>
  <path d="M18 130 C48 114 112 114 142 130" fill="none" stroke="#050607" stroke-width="12" opacity="0.36"/>
  <path d="M18 28 H58 M102 28 H142 M18 132 H58 M102 132 H142" stroke="#7b8990" stroke-width="3" stroke-linecap="round" opacity="0.62"/>
  <g stroke-linejoin="round">

  <path d="M36 112 L100 48" stroke="url(#accent)" stroke-width="13" stroke-linecap="round"/>
  <path d="M94 42 L116 20 L136 40 L114 62 Z" fill="url(#metal)" stroke="#f4c874" stroke-width="5"/>
  <path d="M50 126 L28 148" stroke="#f4c874" stroke-width="8" stroke-linecap="round"/>
  <path d="M58 90 L82 114" stroke="#0b0e11" stroke-width="5" stroke-linecap="round" opacity="0.62"/>
  <circle cx="76" cy="76" r="7" fill="#f4c874"/>
  </g>
  <rect x="8" y="8" width="144" height="144" rx="18" fill="none" stroke="#7b8990" stroke-width="3" opacity="0.76"/>
  <rect x="18" y="18" width="124" height="124" rx="14" fill="none" stroke="#101419" stroke-width="2" opacity="0.72"/>
</svg>
