<svg xmlns="http://www.w3.org/2000/svg" width="160" height="160" viewBox="0 0 160 160">
  <defs>
    <linearGradient id="bg" x1="0" y1="0" x2="1" y2="1">
      <stop offset="0" stop-color="#0b151a"/>
      <stop offset="1" stop-color="#102935"/>
    </linearGradient>
    <radialGradient id="glow" cx="50%" cy="45%" r="58%">
      <stop offset="0" stop-color="#52dfff" stop-opacity="0.40"/>
      <stop offset="0.62" stop-color="#52dfff" stop-opacity="0.12"/>
      <stop offset="1" stop-color="#52dfff" stop-opacity="0"/>
    </radialGradient>
    <linearGradient id="metal" x1="0" y1="0" x2="1" y2="1">
      <stop offset="0" stop-color="#356b7c"/>
      <stop offset="0.56" stop-color="#121d23"/>
      <stop offset="1" stop-color="#080a0d"/>
    </linearGradient>
    <linearGradient id="accent" x1="0" y1="0" x2="1" y2="1">
      <stop offset="0" stop-color="#d7fbff"/>
      <stop offset="1" stop-color="#5adcf3"/>
    </linearGradient>
  </defs>
  <rect width="160" height="160" rx="22" fill="url(#bg)"/>
  <rect width="160" height="160" rx="22" fill="url(#glow)"/>
  <path d="M18 130 C48 114 112 114 142 130" fill="none" stroke="#050607" stroke-width="12" opacity="0.36"/>
  <path d="M18 28 H58 M102 28 H142 M18 132 H58 M102 132 H142" stroke="#58cfe2" stroke-width="3" stroke-linecap="round" opacity="0.62"/>
  <g stroke-linejoin="round">

  <circle cx="78" cy="88" r="42" fill="url(#metal)" stroke="#d7fbff" stroke-width="6"/>
  <path d="M60 54 C74 36 100 36 114 54" stroke="url(#accent)" stroke-width="8" stroke-linecap="round" fill="none"/>
  <path d="M112 48 L134 28 L148 42" stroke="#d7fbff" stroke-width="5" stroke-linecap="round"/>
  <circle cx="148" cy="44" r="7" fill="#5adcf3"/>
  <path d="M58 102 C72 112 88 112 102 102" stroke="#0b0e11" stroke-width="6" stroke-linecap="round"/>
  </g>
  <rect x="8" y="8" width="144" height="144" rx="18" fill="none" stroke="#58cfe2" stroke-width="3" opacity="0.76"/>
  <rect x="18" y="18" width="124" height="124" rx="14" fill="none" stroke="#101419" stroke-width="2" opacity="0.72"/>
</svg>
