<svg xmlns="http://www.w3.org/2000/svg" width="160" height="160" viewBox="0 0 160 160">
  <defs>
    <linearGradient id="bg" x1="0" y1="0" x2="1" y2="1">
      <stop offset="0" stop-color="#111417"/>
      <stop offset="1" stop-color="#23282d"/>
    </linearGradient>
    <radialGradient id="glow" cx="50%" cy="45%" r="58%">
      <stop offset="0" stop-color="#b8c6cf" stop-opacity="0.40"/>
      <stop offset="0.62" stop-color="#b8c6cf" stop-opacity="0.12"/>
      <stop offset="1" stop-color="#b8c6cf" stop-opacity="0"/>
    </radialGradient>
    <linearGradient id="metal" x1="0" y1="0" x2="1" y2="1">
      <stop offset="0" stop-color="#687883"/>
      <stop offset="0.56" stop-color="#171b20"/>
      <stop offset="1" stop-color="#080a0d"/>
    </linearGradient>
    <linearGradient id="accent" x1="0" y1="0" x2="1" y2="1">
      <stop offset="0" stop-color="#f4c874"/>
      <stop offset="1" stop-color="#8fa3ad"/>
    </linearGradient>
  </defs>
  <rect width="160" height="160" rx="22" fill="url(#bg)"/>
  <rect width="160" height="160" rx="22" fill="url(#glow)"/>
  <path d="M18 130 C48 114 112 114 142 130" fill="none" stroke="#050607" stroke-width="12" opacity="0.36"/>
  <path d="M18 28 H58 M102 28 H142 M18 132 H58 M102 132 H142" stroke="#7b8990" stroke-width="3" stroke-linecap="round" opacity="0.62"/>
  <g stroke-linejoin="round">

  <path d="M60 24 H100 V48 L122 82 V124 C122 138 110 146 80 146 C50 146 38 138 38 124 V82 L60 48 Z" fill="url(#metal)" stroke="#f4c874" stroke-width="6"/>
  <path d="M50 94 C68 82 92 106 110 94 V122 C110 132 100 138 80 138 C60 138 50 132 50 122 Z" fill="url(#accent)" opacity="0.80"/>
  <rect x="58" y="22" width="44" height="20" rx="6" fill="#f4c874" opacity="0.78"/>
  <circle cx="70" cy="112" r="6" fill="#f4c874" opacity="0.68"/>
  <circle cx="92" cy="120" r="4" fill="#f4c874" opacity="0.58"/>
  </g>
  <rect x="8" y="8" width="144" height="144" rx="18" fill="none" stroke="#7b8990" stroke-width="3" opacity="0.76"/>
  <rect x="18" y="18" width="124" height="124" rx="14" fill="none" stroke="#101419" stroke-width="2" opacity="0.72"/>
</svg>
